<svg width="557" height="418" viewBox="0 0 557 418" fill="none" xmlns="http://www.w3.org/2000/svg">
<path d="M219.028 392.366L212.713 390.545C211.593 387.642 210.637 384.679 209.85 381.668L212.816 381.56L209.582 380.627C208.646 376.895 208.263 374.364 208.263 374.364C208.263 374.364 221.07 378.18 230.715 385.628L231.905 393.98L233.043 387.558C234.093 388.49 235.083 389.487 236.007 390.543C245.293 401.223 249.333 412.916 245.033 416.658C240.732 420.401 229.718 414.777 220.433 404.096C217.559 400.628 215.234 396.74 213.538 392.567L219.028 392.366Z" fill="#E6E6E6"/>
<path d="M454.926 351.962L458.525 337.759C464.908 335.053 471.437 332.709 478.083 330.739L478.538 337.34L480.381 330.067C488.623 327.713 494.23 326.676 494.23 326.676C494.23 326.676 486.656 355.491 470.77 377.52L452.259 380.773L466.64 382.848C464.641 385.254 462.492 387.532 460.207 389.668C437.098 411.129 411.358 420.975 402.716 411.66C394.074 402.345 405.802 377.397 428.912 355.936C436.076 349.283 445.076 343.944 454.085 339.742L454.926 351.962Z" fill="#E6E6E6"/>
<path d="M420.693 336.538L416.436 322.518C420.501 316.901 424.88 311.517 429.551 306.394L433.351 311.809L431.171 304.631C437.01 298.353 441.275 294.565 441.275 294.565C441.275 294.565 449.678 323.149 447.461 350.223L433.296 362.58L446.678 356.919C446.21 360.013 445.547 363.074 444.695 366.084C436 396.407 419.053 418.147 406.842 414.642C394.632 411.137 391.782 383.715 400.477 353.393C403.172 343.992 408.118 334.768 413.659 326.512L420.693 336.538Z" fill="#E6E6E6"/>
<path d="M360.59 160.954L397.926 161.882L402.952 117.341H360.59V160.954Z" fill="#2F2E41"/>
<path d="M400.112 218.693L413.74 313.228C413.74 313.228 425.552 346.861 426.46 363.223L430.094 386.857L413.74 390.493L396.477 324.136L372.855 264.143L375.58 333.226L381.032 389.583L364.678 392.31L354.683 320.5L343.781 267.779C343.781 267.779 335.603 222.329 348.323 217.784L400.112 218.693Z" fill="#2F2E41"/>
<path d="M414.834 381.055L416.652 403.18C416.652 403.18 397.19 414.436 403.435 416.618C409.679 418.8 418.226 415.993 419.975 415.497C421.821 414.974 425.267 414.138 427.876 413.52C429.083 413.244 430.17 412.588 430.977 411.648C431.784 410.708 432.269 409.535 432.361 408.299L432.366 408.218C432.523 405.495 426.384 381.837 426.384 381.837L414.834 381.055Z" fill="#2F2E41"/>
<path d="M367.573 381.609L366.04 402.764C366.04 402.764 343.879 411.002 349.591 414.337C355.304 417.673 364.23 416.551 366.04 416.399C369.379 416.117 377.687 415.837 377.687 415.837C377.687 415.837 379.223 417.167 379.898 414.525C380.572 411.883 378.998 388.28 378.998 388.28L367.573 381.609Z" fill="#2F2E41"/>
<path d="M381.032 142.338C390.566 142.338 398.294 134.606 398.294 125.067C398.294 115.529 390.566 107.797 381.032 107.797C371.498 107.797 363.769 115.529 363.769 125.067C363.769 134.606 371.498 142.338 381.032 142.338Z" fill="#FFB8B8"/>
<path d="M391.026 135.066L394.66 155.064L379.214 162.336L375.58 136.884L391.026 135.066Z" fill="#FFB8B8"/>
<path d="M392.843 229.601L373.763 243.236C373.763 243.236 365.586 264.143 359.226 260.507C352.866 256.871 366.495 238.691 366.495 238.691L381.94 223.238L392.843 229.601Z" fill="#FFB8B8"/>
<path d="M338.329 223.238L336.512 234.146C336.512 234.146 341.055 256.871 346.506 252.326C351.958 247.781 344.689 233.237 344.689 233.237L345.598 224.147L338.329 223.238Z" fill="#FFB8B8"/>
<path d="M381.032 156.882L382.849 149.61L393.752 144.156L397.386 148.701L409.197 152.337L395.569 225.056C395.569 225.056 349.232 227.783 348.323 220.511C347.415 213.239 357.409 193.242 357.409 193.242C357.409 193.242 354.683 183.243 355.592 177.789L359.226 155.973L373.763 151.428L377.083 147.41L380.123 152.337L381.032 156.882Z" fill="#D0CDE1"/>
<path d="M406.472 154.155L409.197 152.337C409.197 152.337 414.649 153.246 416.466 160.518C418.283 167.79 416.466 200.514 411.923 206.877C407.38 213.239 394.66 232.328 394.66 232.328L377.397 224.147L395.569 203.241L400.112 176.88L406.472 154.155Z" fill="#D0CDE1"/>
<path d="M366.495 157.791L359.226 155.973C359.226 155.973 354.683 157.791 352.866 164.154C351.049 170.517 341.055 202.332 341.963 205.058C342.872 207.785 333.786 225.965 333.786 225.965L346.506 226.874L353.775 207.785L361.043 188.697L366.495 157.791Z" fill="#D0CDE1"/>
<path d="M410.951 141.469C407.311 139.469 405.617 134.979 405.496 130.826C405.375 126.672 406.382 122.562 406.461 118.407C406.502 117.557 406.429 116.705 406.246 115.875C405.944 114.843 405.473 113.869 404.853 112.991C400.119 105.734 391.89 100.628 383.221 100.548C381.969 100.532 380.726 100.76 379.561 101.221C378.665 101.58 378.372 101.537 378.2 102.637C376.147 101.96 373.92 102.031 371.914 102.837C369.926 103.646 368.073 104.75 366.416 106.113C365.431 106.846 364.502 107.65 363.637 108.521C359.056 113.268 358.001 120.586 359.328 127.05C359.759 129.152 357.689 131.18 355.976 132.471C354.264 133.762 352.286 134.947 351.444 136.921C350.635 138.819 351.08 140.99 350.917 143.048C350.734 144.992 350.011 146.847 348.831 148.403C347.65 149.959 346.058 151.153 344.235 151.852C344.607 152.297 345.092 152.634 345.639 152.827C346.187 153.019 346.776 153.061 347.345 152.946C348.532 152.696 349.643 152.167 350.586 151.403C354.131 148.774 356.668 145.008 357.772 140.734C358.276 143.024 358.08 145.385 358.062 147.729C358.106 150.345 357.624 152.943 356.646 155.369C355.65 157.806 353.827 159.815 351.498 161.04C353.745 162.141 356.221 161.343 358.125 159.719C360.029 158.095 361.153 155.738 361.939 153.362C363.216 149.489 363.734 145.406 363.465 141.337C365.555 144.857 366.318 149.008 365.618 153.043C364.887 157.156 362.741 160.883 359.551 163.579C365.112 163.532 370.582 162.154 375.502 159.56C376.773 158.984 377.893 158.121 378.774 157.039C380.357 154.842 379.983 151.845 379.538 149.172C379.187 147.06 381.826 144.005 380.315 142.488C379.866 142.044 379.266 141.786 378.635 141.765C376.362 141.595 374.159 140.905 372.196 139.747C370.232 138.589 368.561 136.995 367.312 135.089C365.569 132.467 364.579 129.417 364.45 126.271C364.451 123.961 364.951 121.678 365.915 119.579C366.879 117.48 368.285 115.614 370.036 114.108C371.787 112.603 373.843 111.494 376.062 110.856C378.281 110.219 380.612 110.068 382.895 110.415C385.178 110.761 387.359 111.597 389.289 112.865C391.22 114.132 392.854 115.802 394.079 117.759C395.305 119.717 396.094 121.916 396.393 124.207C396.691 126.498 396.491 128.826 395.807 131.032C395.262 132.808 394.871 134.627 394.639 136.47C394.366 138.609 393.931 140.723 393.338 142.796C392.194 146.779 390.257 150.844 386.673 152.922C387.877 153.581 389.271 153.611 390.636 153.761C395.134 154.257 399.864 154.148 403.935 152.172C408.006 150.195 411.242 145.986 410.951 141.469Z" fill="#2F2E41"/>
<path d="M401.137 123.837C388.22 118.657 375.485 117.552 363.083 123.837V113.397C363.083 111.593 363.799 109.864 365.074 108.589C366.348 107.313 368.077 106.597 369.88 106.597H395.767C396.473 106.597 397.171 106.736 397.822 107.006C398.474 107.276 399.066 107.671 399.564 108.17C400.063 108.669 400.458 109.261 400.728 109.913C400.998 110.565 401.137 111.263 401.137 111.969V123.837Z" fill="#2F2E41"/>
<path d="M397.117 130.302C398.169 130.302 399.021 128.937 399.021 127.254C399.021 125.571 398.169 124.207 397.117 124.207C396.066 124.207 395.213 125.571 395.213 127.254C395.213 128.937 396.066 130.302 397.117 130.302Z" fill="#FFB8B8"/>
<path d="M557 416.65H206.035V418H557V416.65Z" fill="#3F3D56"/>
<path d="M92.2113 0H30.7371L0 53.2628L30.7371 106.526H92.2113L122.948 53.2628L92.2113 0Z" fill="#E6E6E6"/>
<path d="M34.1872 100.548H88.7614L116.048 53.2631L88.7614 5.97849H34.1872L6.90009 53.2631L34.1872 100.548Z" fill="white"/>
<path d="M92.2113 145.205H30.7371L0 198.468L30.7371 251.731H92.2113L122.948 198.468L92.2113 145.205Z" fill="#E6E6E6"/>
<path d="M34.1872 245.753H88.7614L116.048 198.468L88.7614 151.184H34.1872L6.90009 198.468L34.1872 245.753Z" fill="white"/>
<path d="M92.2113 290.41H30.7371L0 343.673L30.7371 396.936H92.2113L122.948 343.673L92.2113 290.41Z" fill="#E6E6E6"/>
<path d="M34.1872 390.958H88.7614L116.048 343.673L88.7614 296.389H34.1872L6.90009 343.673L34.1872 390.958Z" fill="white"/>
<path d="M61.4743 172.49C56.3388 172.49 51.3186 174.014 47.0486 176.868C42.7786 179.723 39.4505 183.78 37.4852 188.527C35.5199 193.274 35.0057 198.497 36.0076 203.536C37.0095 208.575 39.4825 213.204 43.1138 216.837C46.7452 220.47 51.3718 222.944 56.4087 223.947C61.4455 224.949 66.6663 224.435 71.4109 222.468C76.1555 220.502 80.2108 217.173 83.0639 212.901C85.9171 208.629 87.44 203.606 87.44 198.468C87.4198 191.585 84.6777 184.989 79.8126 180.121C74.9474 175.254 68.3546 172.511 61.4743 172.49ZM61.4743 180.284C63.015 180.284 64.5211 180.741 65.8021 181.597C67.0831 182.454 68.0815 183.671 68.6711 185.095C69.2606 186.519 69.4149 188.086 69.1144 189.597C68.8138 191.109 68.0719 192.498 66.9825 193.588C65.8931 194.678 64.5051 195.42 62.994 195.721C61.483 196.021 59.9167 195.867 58.4933 195.277C57.07 194.687 55.8534 193.688 54.9974 192.407C54.1415 191.125 53.6846 189.618 53.6846 188.077C53.6915 186.012 54.5144 184.034 55.9738 182.574C57.4331 181.114 59.4105 180.291 61.4743 180.284ZM61.4743 217.802C58.3971 217.788 55.3698 217.023 52.6549 215.573C49.94 214.124 47.6196 212.033 45.8949 209.484C46.0198 204.288 56.2812 201.428 61.4743 201.428C66.6674 201.428 76.9289 204.288 77.0537 209.484C75.3271 212.031 73.0062 214.12 70.2918 215.569C67.5774 217.019 64.551 217.785 61.4743 217.802Z" fill="#F9DC25"/>
<path d="M61.3539 35.1315C60.0495 33.7629 58.4848 32.6692 56.7517 31.9146C55.0187 31.1599 53.1523 30.7596 51.2624 30.7371C49.3724 30.7146 47.4971 31.0705 45.7466 31.7837C43.9961 32.497 42.4059 33.5532 41.0694 34.8903C39.7329 36.2274 38.6771 37.8184 37.9642 39.5697C37.2513 41.321 36.8956 43.1972 36.9181 45.0881C36.9405 46.9789 37.3407 48.8461 38.095 50.58C38.8493 52.3138 39.9425 53.8793 41.3104 55.1843L61.8359 75.7194L81.8794 55.6666C84.4953 52.922 85.9346 49.2626 85.8895 45.4705C85.8445 41.6784 84.3187 38.0543 81.6383 35.3726C78.958 32.691 75.3356 31.1646 71.5452 31.1195C67.7548 31.0744 64.0972 32.5143 61.3539 35.1315Z" fill="#F9DC25"/>
<path d="M77.5173 328.567C77.5173 337.431 61.4744 356.891 61.4744 356.891C61.4744 356.891 45.4314 337.431 45.4314 328.567C45.43 326.458 45.844 324.37 46.6496 322.421C47.4552 320.473 48.6367 318.702 50.1266 317.211C51.6165 315.719 53.3855 314.536 55.3326 313.729C57.2797 312.922 59.3667 312.506 61.4744 312.506C63.582 312.506 65.6691 312.922 67.6162 313.729C69.5633 314.536 71.3323 315.719 72.8221 317.211C74.312 318.702 75.4935 320.473 76.2991 322.421C77.1048 324.37 77.5187 326.458 77.5173 328.567Z" fill="#F9DC25"/>
<path d="M61.4743 334.872C64.9552 334.872 67.7769 332.049 67.7769 328.567C67.7769 325.084 64.9552 322.261 61.4743 322.261C57.9935 322.261 55.1718 325.084 55.1718 328.567C55.1718 332.049 57.9935 334.872 61.4743 334.872Z" fill="white"/>
<path d="M60.9014 374.83C64.3822 374.83 67.204 372.007 67.204 368.524C67.204 365.042 64.3822 362.219 60.9014 362.219C57.4206 362.219 54.5988 365.042 54.5988 368.524C54.5988 372.007 57.4206 374.83 60.9014 374.83Z" fill="#F9DC25"/>
</svg>
