<svg width="96" height="90" viewBox="0 0 96 90" fill="none" xmlns="http://www.w3.org/2000/svg">
<path d="M87.4183 0.79895H7.91813C3.47831 0.79895 0 4.39182 0 8.9687V59.9779C0 62.2206 0.800812 64.2343 2.12831 65.7219C2.15119 65.8134 2.19694 65.905 2.26556 65.9736C2.35706 66.088 2.47144 66.1566 2.60887 66.2023C4.00481 67.5066 5.85844 68.3078 7.91813 68.3078H25.9738C26.4086 79.9101 35.9741 89.2011 47.6681 89.2011C59.3621 89.2011 68.9276 79.9101 69.3624 68.3078H87.4181C91.995 68.3078 95.9998 64.4175 95.9998 59.9779V8.9687C96 4.55195 92.064 0.79895 87.4183 0.79895ZM7.91813 2.30926H12.9984V2.28639C13.0442 2.33214 13.0671 2.37789 13.1128 2.40076L47.1878 29.8849C47.325 29.9993 47.4853 30.045 47.6683 30.045C47.8284 30.045 48.0116 29.9993 48.1489 29.8849L52.7486 26.1548C53.0691 25.9031 53.1148 25.4226 52.863 25.1021C52.6114 24.7817 52.1308 24.7359 51.8104 24.9878L47.6914 28.3288L15.3553 2.28639H79.4544L57.6227 20.2734C57.3023 20.5481 57.2565 21.0056 57.5312 21.3261C57.6684 21.5091 57.8974 21.6006 58.1032 21.6006C58.2634 21.6006 58.4466 21.5548 58.5838 21.4404L81.6744 2.40076C81.7202 2.35501 81.7659 2.33214 81.7888 2.28639H87.4183C88.8373 2.28639 90.1873 2.69833 91.3086 3.43051L47.6681 38.7641L4.14206 3.5222C5.19487 2.74408 6.47625 2.30926 7.91813 2.30926ZM94.5354 59.9779H94.5124C94.5124 61.7171 93.7573 63.3647 92.5442 64.6007L59.1332 37.5512C58.8128 37.2996 58.3324 37.3453 58.0806 37.6656C57.8288 37.9858 57.8747 38.4664 58.1949 38.7182L91.3772 65.5616C90.2331 66.3396 88.8598 66.7973 87.4183 66.7973H69.3626C69.2254 62.3348 67.7606 58.1241 65.1062 54.5312C64.8546 54.1879 64.3969 54.1193 64.0536 54.3711C63.7102 54.6229 63.6416 55.0804 63.8934 55.4237C66.5021 58.9253 67.875 63.0902 67.875 67.4612C67.875 78.606 58.8128 87.6909 47.6452 87.6909C36.4777 87.6909 27.4155 78.6287 27.4155 67.4612C27.4155 56.3164 36.4777 47.2314 47.6452 47.2314C51.5355 47.2314 55.3116 48.3298 58.5611 50.4353C58.9044 50.664 59.3619 50.5496 59.5909 50.2065C59.8196 49.8632 59.7052 49.4057 59.3621 49.1768C55.8609 46.9341 51.8102 45.7442 47.6224 45.7442C35.8597 45.7442 26.2714 55.1267 25.9052 66.7978H7.91813C6.47644 66.7978 5.14913 66.3173 4.07363 65.4707L37.1415 38.6961C37.4619 38.4444 37.5077 37.9639 37.2559 37.6434C37.0042 37.323 36.5237 37.2773 36.2033 37.5291L3.02081 64.3946C2.08256 63.2048 1.51031 61.6714 1.51031 59.955V8.9687C1.51031 7.25232 2.08238 5.69626 3.04369 4.55195L47.2104 40.3202C47.3477 40.4346 47.508 40.4803 47.691 40.4803C47.874 40.4803 48.0343 40.4346 48.1716 40.3202L92.5446 4.39182C93.7802 5.60458 94.5356 7.22945 94.5356 8.99157V59.9779H94.5354Z" fill="#687ECD" fill-opacity="0.7"/>
</svg>
