<svg width="503" height="408" viewBox="0 0 503 408" fill="none" xmlns="http://www.w3.org/2000/svg">
<g clip-path="url(#clip0)">
<path d="M362.465 408C392.128 408 416.174 402.909 416.174 396.628C416.174 390.348 392.128 385.257 362.465 385.257C332.802 385.257 308.756 390.348 308.756 396.628C308.756 402.909 332.802 408 362.465 408Z" fill="#E6E6E6"/>
<path d="M108.527 0H36.1755L0 62.6857L36.1755 125.372H108.527L144.703 62.6857L108.527 0Z" fill="#E6E6E6"/>
<path d="M40.2363 118.335H104.467L136.582 62.6858L104.467 7.03613H40.2363L8.12109 62.6858L40.2363 118.335Z" fill="white"/>
<path d="M39.4605 49.0495C41.097 49.0495 42.4236 47.7223 42.4236 46.0851C42.4236 44.4478 41.097 43.1206 39.4605 43.1206C37.824 43.1206 36.4973 44.4478 36.4973 46.0851C36.4973 47.7223 37.824 49.0495 39.4605 49.0495Z" fill="#E2E2E2"/>
<path d="M39.4605 65.6503C41.097 65.6503 42.4236 64.3231 42.4236 62.6859C42.4236 61.0487 41.097 59.7214 39.4605 59.7214C37.824 59.7214 36.4973 61.0487 36.4973 62.6859C36.4973 64.3231 37.824 65.6503 39.4605 65.6503Z" fill="#E2E2E2"/>
<path d="M39.4605 82.2512C41.097 82.2512 42.4236 80.924 42.4236 79.2867C42.4236 77.6495 41.097 76.3223 39.4605 76.3223C37.824 76.3223 36.4973 77.6495 36.4973 79.2867C36.4973 80.924 37.824 82.2512 39.4605 82.2512Z" fill="#E2E2E2"/>
<path d="M108.206 43.7134H51.9058V48.4565H108.206V43.7134Z" fill="#E2E2E2"/>
<path d="M108.206 60.3145H51.9058V65.0576H108.206V60.3145Z" fill="#E2E2E2"/>
<path d="M108.206 76.9153H51.9058V81.6584H108.206V76.9153Z" fill="#E2E2E2"/>
<path d="M466.825 0H394.473L358.297 62.6857L394.473 125.372H466.825L503 62.6857L466.825 0Z" fill="#E6E6E6"/>
<path d="M398.533 118.335H462.764L494.879 62.6858L462.764 7.03613H398.533L366.418 62.6858L398.533 118.335Z" fill="white"/>
<path d="M397.758 49.0495C399.394 49.0495 400.721 47.7223 400.721 46.0851C400.721 44.4478 399.394 43.1206 397.758 43.1206C396.121 43.1206 394.795 44.4478 394.795 46.0851C394.795 47.7223 396.121 49.0495 397.758 49.0495Z" fill="#E2E2E2"/>
<path d="M397.758 65.6503C399.394 65.6503 400.721 64.3231 400.721 62.6859C400.721 61.0487 399.394 59.7214 397.758 59.7214C396.121 59.7214 394.795 61.0487 394.795 62.6859C394.795 64.3231 396.121 65.6503 397.758 65.6503Z" fill="#E2E2E2"/>
<path d="M397.758 82.2512C399.394 82.2512 400.721 80.924 400.721 79.2867C400.721 77.6495 399.394 76.3223 397.758 76.3223C396.121 76.3223 394.795 77.6495 394.795 79.2867C394.795 80.924 396.121 82.2512 397.758 82.2512Z" fill="#E2E2E2"/>
<path d="M466.503 43.7134H410.203V48.4565H466.503V43.7134Z" fill="#E2E2E2"/>
<path d="M466.503 60.3145H410.203V65.0576H466.503V60.3145Z" fill="#E2E2E2"/>
<path d="M466.503 76.9153H410.203V81.6584H466.503V76.9153Z" fill="#E2E2E2"/>
<path d="M285.94 0.608887H214.291L178.467 62.6858L214.291 124.763H285.94L321.765 62.6858L285.94 0.608887Z" fill="#E6E6E6"/>
<path d="M218.313 117.795H281.919L313.722 62.6859L281.919 7.57666H218.313L186.509 62.6859L218.313 117.795Z" fill="white"/>
<path d="M217.544 49.1816C219.165 49.1816 220.479 47.8673 220.479 46.246C220.479 44.6246 219.165 43.3103 217.544 43.3103C215.924 43.3103 214.61 44.6246 214.61 46.246C214.61 47.8673 215.924 49.1816 217.544 49.1816Z" fill="#F9DC25"/>
<path d="M217.544 65.6216C219.165 65.6216 220.479 64.3072 220.479 62.6859C220.479 61.0646 219.165 59.7502 217.544 59.7502C215.924 59.7502 214.61 61.0646 214.61 62.6859C214.61 64.3072 215.924 65.6216 217.544 65.6216Z" fill="#F9DC25"/>
<path d="M217.544 82.0613C219.165 82.0613 220.479 80.7469 220.479 79.1256C220.479 77.5043 219.165 76.1899 217.544 76.1899C215.924 76.1899 214.61 77.5043 214.61 79.1256C214.61 80.7469 215.924 82.0613 217.544 82.0613Z" fill="#F9DC25"/>
<path d="M285.622 43.8977H229.869V48.5948H285.622V43.8977Z" fill="#F9DC25"/>
<path d="M285.622 60.3374H229.869V65.0345H285.622V60.3374Z" fill="#F9DC25"/>
<path d="M285.622 76.7771H229.869V81.4742H285.622V76.7771Z" fill="#F9DC25"/>
<path d="M351.056 109.217C351.056 109.217 356.924 131.118 361.911 132.574C366.898 134.03 335.312 138.574 335.312 138.574L334.615 118.947L351.056 109.217Z" fill="#A0616A"/>
<path d="M325.26 245.837L331.101 258.359L337.777 251.68L333.605 241.662L325.26 245.837Z" fill="#A0616A"/>
<path d="M397.861 238.323L396.191 250.011L391.185 246.671V234.149L397.861 238.323Z" fill="#A0616A"/>
<path d="M326.095 364.386L323.591 384.422L336.943 385.257L335.274 364.386H326.095Z" fill="#A0616A"/>
<path d="M399.529 364.386L402.033 384.422L388.681 385.257L390.35 364.386H399.529Z" fill="#A0616A"/>
<path d="M331.936 239.158C331.936 239.158 326.095 255.02 326.929 261.699C327.764 268.378 320.253 302.607 322.757 305.946C325.26 309.286 325.26 313.46 323.591 315.964C321.922 318.469 321.088 315.13 321.922 319.304C322.757 323.478 321.088 344.349 321.922 347.689C322.757 351.028 319.419 351.863 321.088 355.203C322.757 358.542 325.26 368.56 325.26 368.56L336.109 367.725L337.778 358.542C337.778 358.542 342.784 357.707 341.95 352.698C341.115 347.689 346.122 314.295 346.122 314.295L360.309 267.543L380.336 310.12C380.336 310.12 381.171 340.175 383.674 343.515C386.178 346.854 381.171 356.037 383.674 359.377C386.178 362.716 388.681 368.56 388.681 368.56H401.198V361.881C401.198 361.881 408.709 357.707 401.198 345.184L399.529 273.387L394.523 239.158H331.936Z" fill="#2F2E41"/>
<path d="M338.612 381.918C338.612 381.918 332.771 379.413 330.267 381.083C327.764 382.753 326.095 380.248 326.095 380.248C326.095 380.248 322.757 378.578 321.922 381.083C321.281 382.842 320.441 384.523 319.419 386.092C319.419 386.092 314.412 395.275 317.75 397.78C321.088 400.285 323.591 401.954 323.591 403.624C323.591 405.294 339.446 406.129 339.446 403.624C339.446 401.119 338.612 381.918 338.612 381.918Z" fill="#2F2E41"/>
<path d="M387.012 381.918C387.012 381.918 392.854 379.413 395.357 381.083C397.86 382.753 399.529 380.248 399.529 380.248C399.529 380.248 402.867 378.578 403.702 381.083C404.343 382.842 405.183 384.523 406.205 386.092C406.205 386.092 411.212 395.275 407.874 397.78C404.536 400.285 402.033 401.954 402.033 403.624C402.033 405.294 386.178 406.129 386.178 403.624C386.178 401.119 387.012 381.918 387.012 381.918Z" fill="#2F2E41"/>
<path d="M381.588 136.888C381.588 136.888 358.222 127.704 345.705 131.044C333.188 134.383 312.326 149.411 313.16 152.75C313.995 156.089 321.922 194.91 321.922 194.91C321.922 194.91 321.922 218.286 326.095 225.8C330.267 233.314 331.102 239.158 331.102 239.158L330.267 247.506C330.267 247.506 351.964 249.176 363.647 244.167C375.329 239.158 394.523 242.497 394.523 242.497C394.523 242.497 384.509 200.754 379.502 194.075C374.495 187.397 381.588 136.888 381.588 136.888Z" fill="#575A89"/>
<path d="M320.253 150.663L312.743 153.168C312.743 153.168 306.067 163.186 306.067 169.865C306.067 176.544 305.232 218.286 308.57 224.13C311.908 229.974 315.246 241.662 320.253 242.497L326.095 250.011L336.109 243.332L332.771 235.818L320.253 150.663Z" fill="#575A89"/>
<path d="M370.322 138.14L378.623 135.808L382.005 137.305C382.005 137.305 394.522 149.828 398.695 162.351C402.867 174.874 403.702 223.296 403.702 223.296C403.702 223.296 404.536 225.8 403.702 226.635C402.867 227.47 402.033 228.305 402.033 229.974C402.033 231.644 400.364 234.983 400.364 234.983L399.529 241.662L391.185 240.827C391.185 240.827 375.329 194.076 375.329 183.222C375.329 172.369 370.322 138.14 370.322 138.14Z" fill="#575A89"/>
<path d="M367.995 132.628C367.995 132.628 368.236 128.539 365.733 127.704C363.229 126.87 359.891 122.695 353.215 124.365C346.54 126.035 329.015 128.539 328.181 130.209C327.346 131.879 324.843 132.714 325.677 134.383C326.512 136.053 328.181 134.383 326.512 136.053C324.843 137.723 324.008 136.888 324.843 137.723C325.677 138.558 325.677 142.732 325.677 142.732C325.677 142.732 338.195 151.08 341.533 150.246C344.871 149.411 364.792 131.881 364.792 131.881L367.995 132.628Z" fill="#575A89"/>
<path opacity="0.2" d="M325.632 187.256L324.786 215.694L331.462 235.73L325.632 187.256Z" fill="black"/>
<path opacity="0.2" d="M383.225 174.831L390.776 202.261L389.031 223.309L383.225 174.831Z" fill="black"/>
<path d="M342.163 125.372C351.946 125.372 359.876 117.438 359.876 107.651C359.876 97.8644 351.946 89.9307 342.163 89.9307C332.381 89.9307 324.451 97.8644 324.451 107.651C324.451 117.438 332.381 125.372 342.163 125.372Z" fill="#A0616A"/>
<path d="M327.09 106.429C328.34 109.623 329.59 112.818 330.84 116.013C332.376 119.94 334.136 124.142 337.738 126.334C342.185 129.04 348.123 127.721 352.425 124.789C360.103 119.557 364.008 109.34 361.778 100.317C359.547 91.2943 351.333 84.0762 342.102 83.0272L341.924 86.235L337.989 82.9355C336.942 85.0443 333.633 85.5124 332.043 83.7768C333.077 85.9202 331.884 88.5343 330.161 90.1762C328.045 92.1933 321.992 94.6174 322.243 98.2232C322.41 100.629 326.114 103.935 327.09 106.429Z" fill="#2F2E41"/>
</g>
<defs>
<clipPath id="clip0">
<rect width="503" height="408" fill="white"/>
</clipPath>
</defs>
</svg>
