<svg width="456" height="400" viewBox="0 0 456 400" fill="none" xmlns="http://www.w3.org/2000/svg">
<g clip-path="url(#clip0)">
<path d="M297.041 400C281.735 397.407 267.015 395.18 252.881 393.319L258.469 382.486C256.585 381.832 248.307 388.036 248.307 388.036L255.64 356.59C246.164 357.732 241.346 389.841 241.346 389.841L230.759 378.985L235.885 391.19C192.627 386.095 155.269 384.206 123.846 384.138L128.628 374.866C126.744 374.212 118.466 380.416 118.466 380.416L125.799 348.97C116.323 350.113 111.505 382.221 111.505 382.221L100.918 371.365L106.347 384.292C84.8175 384.647 63.3204 386.108 41.9405 388.667C46.7775 374.223 63.2092 360.485 63.2092 360.485C50.6604 364.217 44.0779 370.471 40.6383 376.302C40.331 346.499 45.2866 316.875 55.2773 288.794C55.2773 288.794 29.3393 345.238 32.649 383.125L33.0448 389.852C11.0553 393.001 0 396.277 0 396.277L297.041 400Z" fill="#3F3D56"/>
<path d="M186.866 325.261L186.866 324.176C189.021 324.176 191.21 324.131 193.37 324.045L193.414 325.128C191.239 325.216 189.036 325.26 186.866 325.261ZM180.32 325.135C178.153 325.051 175.954 324.921 173.784 324.75L173.869 323.669C176.025 323.839 178.209 323.968 180.362 324.052L180.32 325.135ZM199.95 324.736L199.863 323.654C202.015 323.482 204.192 323.264 206.335 323.005L206.465 324.082C204.308 324.342 202.116 324.562 199.95 324.735V324.736ZM167.268 324.103C165.106 323.845 162.925 323.539 160.783 323.195L160.955 322.125C163.082 322.467 165.249 322.77 167.397 323.027L167.268 324.103ZM212.948 323.166L212.775 322.096C214.902 321.752 217.054 321.359 219.174 320.928L219.39 321.99C217.256 322.425 215.089 322.82 212.948 323.166V323.166ZM154.34 322.027C152.207 321.595 150.057 321.113 147.95 320.598L148.208 319.544C150.301 320.057 152.436 320.535 154.555 320.964L154.34 322.027ZM225.779 320.554L225.52 319.501C227.619 318.985 229.733 318.419 231.803 317.819L232.104 318.861C230.02 319.464 227.892 320.034 225.779 320.554V320.554ZM141.622 318.911C139.532 318.308 137.428 317.654 135.368 316.969L135.711 315.94C137.756 316.621 139.846 317.27 141.923 317.869L141.622 318.911ZM238.356 316.911L238.012 315.883C240.059 315.199 242.12 314.464 244.138 313.697L244.524 314.71C242.491 315.482 240.416 316.223 238.356 316.911V316.911ZM129.182 314.769C127.148 313.998 125.099 313.174 123.092 312.319L123.517 311.322C125.51 312.171 127.546 312.989 129.566 313.754L129.182 314.769ZM250.58 312.268L250.154 311.271C252.136 310.424 254.126 309.527 256.069 308.603L256.535 309.583C254.579 310.512 252.575 311.416 250.58 312.268V312.268ZM117.108 309.625C115.139 308.691 113.164 307.704 111.24 306.692L111.744 305.733C113.656 306.737 115.617 307.718 117.573 308.646L117.108 309.625ZM262.379 306.658L261.873 305.698C263.783 304.694 265.696 303.637 267.558 302.56L268.101 303.498C266.226 304.583 264.301 305.646 262.379 306.658V306.658ZM105.497 303.525C103.608 302.433 101.721 301.29 99.8881 300.129L100.468 299.213C102.288 300.366 104.163 301.501 106.04 302.587L105.497 303.525ZM273.694 300.11L273.114 299.194C274.932 298.043 276.754 296.836 278.531 295.608L279.148 296.499C277.359 297.736 275.524 298.951 273.694 300.11L273.694 300.11ZM94.4218 296.512C92.629 295.273 90.8407 293.983 89.1064 292.678L89.7581 291.812C91.481 293.108 93.2574 294.389 95.038 295.62L94.4218 296.512ZM284.454 292.672L283.802 291.805C285.521 290.513 287.242 289.163 288.917 287.794L289.603 288.634C287.917 290.012 286.184 291.37 284.454 292.672H284.454ZM83.9501 288.635C82.2669 287.26 80.5884 285.831 78.9613 284.389L79.6802 283.578C81.2967 285.01 82.9641 286.429 84.6362 287.795L83.9501 288.635ZM294.588 284.392L293.869 283.581C295.484 282.149 297.093 280.665 298.649 279.171L299.4 279.953C297.833 281.457 296.214 282.951 294.588 284.392H294.588ZM74.1473 279.949C72.5834 278.446 71.0252 276.889 69.5161 275.32L70.2975 274.568C71.7967 276.127 73.3447 277.674 74.8985 279.166L74.1473 279.949ZM304.031 275.324L303.25 274.572C304.745 273.018 306.229 271.41 307.664 269.793L308.475 270.513C307.031 272.14 305.536 273.759 304.031 275.324ZM65.0744 270.51C63.6289 268.881 62.2009 267.204 60.8295 265.527L61.6691 264.841C63.031 266.507 64.4498 268.173 65.8855 269.791L65.0744 270.51ZM312.724 265.526L311.884 264.84C313.254 263.165 314.606 261.442 315.903 259.72L316.769 260.373C315.464 262.106 314.102 263.84 312.724 265.526ZM56.7886 260.38C55.4821 258.646 54.1932 256.862 52.9582 255.077L53.8497 254.46C55.0765 256.233 56.3566 258.005 57.6547 259.728L56.7886 260.38ZM320.606 255.059L319.714 254.443C320.946 252.662 322.156 250.835 323.31 249.014L324.226 249.595C323.064 251.428 321.846 253.266 320.606 255.059ZM49.3443 249.625C48.1825 247.794 47.0417 245.913 45.9532 244.034L46.8913 243.491C47.9723 245.357 49.1058 247.225 50.2596 249.045L49.3443 249.625ZM327.626 243.988L326.687 243.445C327.773 241.569 328.832 239.65 329.836 237.741L330.796 238.246C329.785 240.168 328.718 242.099 327.626 243.988ZM42.7911 238.312C41.781 236.394 40.7958 234.428 39.863 232.47L40.8419 232.004C41.7686 233.949 42.7472 235.902 43.7504 237.807L42.7911 238.312ZM333.732 232.38L332.753 231.914C333.681 229.962 334.582 227.963 335.431 225.972L336.429 226.398C335.574 228.402 334.667 230.415 333.732 232.38ZM37.174 226.517C36.3201 224.52 35.4974 222.483 34.7284 220.462L35.7417 220.077C36.5056 222.083 37.3227 224.107 38.1709 226.09L37.174 226.517ZM338.882 220.309L337.868 219.925C338.637 217.896 339.374 215.829 340.057 213.781L341.085 214.124C340.398 216.187 339.656 218.267 338.882 220.309ZM32.524 214.296C31.8337 212.235 31.1767 210.131 30.5714 208.045L31.6127 207.743C32.2141 209.815 32.8666 211.904 33.5521 213.951L32.524 214.296ZM343.031 207.87L341.99 207.57C342.588 205.501 343.153 203.387 343.669 201.286L344.721 201.544C344.202 203.659 343.633 205.788 343.031 207.87ZM28.8741 201.72C28.3532 199.609 27.8691 197.46 27.4344 195.333L28.4969 195.115C28.9284 197.229 29.4094 199.364 29.9266 201.461L28.8741 201.72ZM346.154 195.155L345.091 194.939C345.52 192.827 345.911 190.674 346.255 188.54L347.326 188.713C346.98 190.861 346.585 193.029 346.154 195.155ZM26.2547 188.891C25.9071 186.751 25.5979 184.57 25.3359 182.408L26.4122 182.278C26.6726 184.425 26.9797 186.592 27.3251 188.718L26.2547 188.891ZM348.238 182.227L347.161 182.098C347.419 179.952 347.636 177.775 347.807 175.627L348.888 175.712C348.716 177.875 348.497 180.067 348.238 182.227V182.227ZM24.6786 175.894C24.5037 173.729 24.3703 171.53 24.2821 169.358L25.3653 169.314C25.4529 171.471 25.5855 173.656 25.7591 175.807L24.6786 175.894ZM349.277 169.177L348.194 169.134C348.279 166.974 348.322 164.786 348.322 162.631L348.322 162.272H349.406L349.406 162.628C349.406 164.8 349.363 167.002 349.277 169.177ZM25.2295 162.81H24.1453L24.1455 162.628C24.1455 160.513 24.1865 158.371 24.2678 156.265L25.351 156.307C25.2705 158.4 25.2297 160.527 25.2297 162.631L25.2295 162.81ZM348.179 155.77C348.089 153.617 347.955 151.432 347.778 149.277L348.859 149.189C349.036 151.359 349.172 153.557 349.262 155.725L348.179 155.77ZM25.7308 149.813L24.6498 149.729C24.8203 147.557 25.0368 145.365 25.293 143.212L26.3698 143.34C26.1152 145.479 25.9002 147.657 25.7308 149.813H25.7308ZM347.118 142.806C346.857 140.668 346.548 138.502 346.198 136.368L347.269 136.193C347.62 138.341 347.932 140.522 348.194 142.675L347.118 142.806ZM27.2677 136.899L26.1972 136.727C26.5408 134.58 26.9328 132.412 27.363 130.284L28.4255 130.498C27.9985 132.613 27.6091 134.766 27.2676 136.899H27.2677ZM345.019 129.971C344.584 127.853 344.1 125.719 343.582 123.628L344.635 123.367C345.157 125.472 345.643 127.62 346.081 129.753L345.019 129.971ZM29.8408 124.15L28.7875 123.892C29.3032 121.782 29.8696 119.653 30.471 117.563L31.5129 117.863C30.9155 119.939 30.353 122.054 29.8408 124.15ZM341.89 117.348C341.286 115.277 340.632 113.189 339.944 111.141L340.972 110.796C341.664 112.857 342.323 114.959 342.93 117.044L341.89 117.348ZM33.4383 111.651L32.4094 111.309C33.0955 109.244 33.8345 107.162 34.6061 105.121L35.6205 105.504C34.8539 107.532 34.1196 109.6 33.4383 111.651ZM337.747 105.019C336.976 103.002 336.157 100.979 335.311 99.0068L336.307 98.5796C337.159 100.565 337.984 102.601 338.76 104.632L337.747 105.019ZM38.0501 99.4537L37.0522 99.0291C37.9043 97.0261 38.8095 95.0123 39.7426 93.0443L40.7222 93.5086C39.7953 95.4636 38.8964 97.4639 38.0501 99.4537ZM332.633 93.0961C331.705 91.1527 330.725 89.2014 329.719 87.2963L330.677 86.79C331.69 88.708 332.678 90.6723 333.611 92.6292L332.633 93.0961ZM43.6329 87.678L42.6726 87.1746C43.6832 85.2484 44.7478 83.3155 45.8365 81.4296L46.7756 81.9717C45.6941 83.845 44.6366 85.765 43.6329 87.678ZM326.571 81.617C325.487 79.7506 324.352 77.8834 323.197 76.0668L324.111 75.485C325.274 77.3138 326.417 79.1936 327.509 81.0722L326.571 81.617ZM50.1455 76.3984L49.2291 75.8188C50.3922 73.9799 51.6085 72.14 52.8439 70.3504L53.7359 70.9663C52.5087 72.744 51.3009 74.5715 50.1455 76.3984ZM319.6 70.655C318.371 68.8829 317.088 67.1115 315.79 65.391L316.655 64.7377C317.962 66.4699 319.253 68.2529 320.491 70.0372L319.6 70.655ZM57.5412 65.684L56.6745 65.0328C57.9811 63.2938 59.3403 61.5584 60.7144 59.8744L61.5545 60.56C60.1895 62.2326 58.8392 63.9566 57.5412 65.684ZM311.77 60.2823C310.403 58.6139 308.982 56.9503 307.548 55.3378L308.358 54.6173C309.802 56.2406 311.232 57.9154 312.609 59.5952L311.77 60.2823ZM65.7693 55.6017L64.9577 54.8833C66.3972 53.257 67.8903 51.6365 69.3959 50.0668L70.1784 50.8175C68.6828 52.3766 67.1995 53.9865 65.7693 55.6017V55.6017ZM303.131 50.5645C301.631 49.0078 300.081 47.4625 298.525 45.9711L299.275 45.1882C300.841 46.6895 302.401 48.2452 303.911 49.8122L303.131 50.5645ZM74.7741 46.2141L74.0223 45.4328C75.5867 43.9274 77.2043 42.4324 78.8295 40.9887L79.5495 41.7992C77.9348 43.2334 76.3281 44.7189 74.7741 46.2141V46.2141ZM293.738 41.5647C292.118 40.1324 290.449 38.7152 288.778 37.3528L289.463 36.5124C291.145 37.8841 292.826 39.3106 294.456 40.7526L293.738 41.5647ZM84.4967 37.5799L83.8095 36.7414C85.4917 35.3636 87.2228 34.0033 88.9545 32.6978L89.6072 33.5634C87.8869 34.8602 86.1675 36.2117 84.4967 37.5799ZM283.651 33.3424C281.921 32.0443 280.143 30.765 278.367 29.54L278.982 28.6474C280.77 29.8807 282.56 31.1684 284.302 32.4752L283.651 33.3424ZM94.8742 29.7547L94.2564 28.8637C96.0436 27.6252 97.8772 26.4084 99.7062 25.2469L100.288 26.1622C98.4706 27.3158 96.6492 28.5244 94.8742 29.7547H94.8742ZM272.933 25.952C271.105 24.7974 269.229 23.6648 267.357 22.5856L267.899 21.6464C269.783 22.7328 271.671 23.8731 273.512 25.0354L272.933 25.952ZM105.839 22.7913L105.295 21.8532C107.17 20.7661 109.094 19.7009 111.014 18.6879L111.521 19.6467C109.613 20.653 107.701 21.711 105.839 22.7913ZM261.65 19.4458C259.735 18.4425 257.773 17.4645 255.818 16.5388L256.281 15.5589C258.25 16.4907 260.225 17.4753 262.152 18.4854L261.65 19.4458ZM117.322 16.7352L116.855 15.7564C118.81 14.8244 120.812 13.9186 122.807 13.0642L123.234 14.0607C121.253 14.9094 119.263 15.8091 117.322 16.7352ZM249.871 13.8699C247.878 13.0237 245.842 12.2076 243.819 11.4437L244.202 10.4293C246.239 11.1983 248.289 12.0202 250.295 12.872L249.871 13.8699ZM129.247 11.6282L128.861 10.6149C130.89 9.84145 132.964 9.09871 135.026 8.40705L135.37 9.43514C133.322 10.122 131.262 10.86 129.247 11.6282H129.247ZM237.671 9.26467C235.622 8.58519 233.532 7.93853 231.457 7.3427L231.757 6.30085C233.845 6.90065 235.95 7.55154 238.012 8.23553L237.671 9.26467ZM141.578 7.49172L141.275 6.45093C143.361 5.84424 145.488 5.27197 147.599 4.74972L147.86 5.80216C145.763 6.32096 143.649 6.88954 141.578 7.49172ZM225.17 5.67457C223.077 5.16397 220.941 4.68884 218.821 4.2624L219.035 3.19937C221.169 3.62871 223.319 4.10729 225.427 4.62107L225.17 5.67457ZM154.204 4.36935L153.986 3.30737C156.112 2.87221 158.278 2.4741 160.426 2.12391L160.601 3.19382C158.467 3.5419 156.315 3.93736 154.204 4.36935ZM212.42 3.10833C210.288 2.76843 208.12 2.46723 205.977 2.21364L206.105 1.13686C208.262 1.39229 210.444 1.69537 212.59 2.03789L212.42 3.10833ZM167.04 2.27744L166.909 1.20118C169.066 0.938596 171.257 0.715995 173.423 0.540224L173.511 1.62072C171.359 1.79572 169.182 2.01645 167.04 2.27744ZM199.504 1.57837C197.355 1.41082 195.17 1.28429 193.011 1.2025L193.052 0.118841C195.226 0.201425 197.425 0.32874 199.588 0.497355L199.504 1.57837ZM180.004 1.22341L179.959 0.14029C182.127 0.0508432 184.33 0.00368087 186.506 0L186.507 1.0842C184.346 1.08788 182.158 1.13474 180.004 1.22341Z" fill="#3F3D56"/>
<path d="M135.902 224.242C135.902 224.242 131.492 243.141 135.272 243.141C139.051 243.141 146.611 234.321 146.611 234.321V229.282L135.902 224.242Z" fill="#A0616A"/>
<path d="M145.036 207.548L133.697 225.187H141.886L145.036 207.548Z" fill="#D0CDE1"/>
<path d="M153.226 361.26H138.106V373.859H153.226V361.26Z" fill="#A0616A"/>
<path d="M186.614 359.37L189.764 373.859L205.513 370.079L201.733 357.48L186.614 359.37Z" fill="#A0616A"/>
<path d="M139.366 228.967C139.366 228.967 134.327 231.487 133.697 242.826C133.067 254.165 135.587 283.774 135.587 283.774C135.587 283.774 133.067 297.003 135.587 308.973C138.106 320.942 133.067 364.41 136.217 364.41C139.366 364.41 155.746 366.3 156.375 364.41C157.005 362.52 157.635 334.171 157.635 334.171C157.635 334.171 162.675 319.682 157.635 310.863C157.635 310.863 168.975 320.312 168.975 322.832C168.975 325.352 180.944 364.41 186.614 365.04C192.284 365.67 208.033 364.41 204.883 358.74C201.733 353.07 194.174 327.242 194.174 327.242C194.174 327.242 188.504 308.343 178.424 300.153L183.464 259.835C183.464 259.835 194.174 232.747 187.874 228.967C181.574 225.187 139.366 228.967 139.366 228.967Z" fill="#2F2E41"/>
<path d="M158.265 126.282C167.311 126.282 174.645 118.949 174.645 109.903C174.645 100.857 167.311 93.5239 158.265 93.5239C149.219 93.5239 141.886 100.857 141.886 109.903C141.886 118.949 149.219 126.282 158.265 126.282Z" fill="#A0616A"/>
<path d="M150.076 119.983C150.076 119.983 156.375 140.771 154.486 143.291C152.596 145.811 174.645 129.432 174.645 129.432C174.645 129.432 166.455 123.762 169.605 115.573L150.076 119.983Z" fill="#A0616A"/>
<path d="M176.534 127.542C176.534 127.542 168.975 130.062 165.195 134.472C161.415 138.881 152.596 139.511 152.596 139.511C152.596 139.511 144.799 143.902 141.886 151.481C138.782 159.558 140.586 170.93 141.886 173.53C144.406 178.569 144.406 191.169 144.406 191.169L141.256 220.147C141.256 220.147 129.917 230.857 138.736 232.117C147.556 233.377 163.305 231.487 172.755 232.117C182.204 232.747 192.914 234.006 189.764 227.707C186.614 221.407 182.834 216.997 186.614 204.398C189.572 194.539 189.443 157.676 189.248 142.109C189.221 139.971 188.648 137.876 187.582 136.022C186.517 134.168 184.995 132.618 183.161 131.518L176.534 127.542Z" fill="#D0CDE1"/>
<path d="M151.966 223.927C151.966 223.927 149.099 230.237 148.816 234.006C146.611 263.3 162.675 234.006 162.675 234.006V228.967L151.966 223.927Z" fill="#A0616A"/>
<path d="M196.063 368.819C196.063 368.819 186.614 361.89 186.614 365.67C186.614 369.449 175.904 384.569 175.904 384.569C175.904 384.569 158.265 397.168 172.755 397.168C187.244 397.168 193.544 394.648 193.544 394.648L208.663 384.569C208.663 384.569 212.443 380.159 211.183 375.119C209.923 370.079 205.513 363.15 205.513 363.15C205.513 363.15 200.473 370.079 196.063 368.819Z" fill="#2F2E41"/>
<path d="M140.626 370.709C140.626 370.709 139.366 364.41 134.957 367.559C130.547 370.709 118.577 380.159 118.577 380.159C118.577 380.159 96.5286 385.199 110.388 391.498C124.247 397.798 155.746 388.978 155.746 388.978C155.746 388.978 157.005 368.819 155.746 369.449C154.486 370.079 141.256 371.969 140.626 370.709Z" fill="#2F2E41"/>
<path opacity="0.1" d="M167.4 147.386L169.29 185.814L150.977 222.904L147.871 221.722L166.77 187.074L167.4 147.386Z" fill="black"/>
<path d="M182.204 135.732L186.929 134.787C186.929 134.787 201.103 145.181 196.693 165.97C192.284 186.759 172.755 218.257 172.755 218.257C172.755 218.257 168.345 223.927 167.085 225.187C165.825 226.447 163.305 225.187 164.565 227.077C165.825 228.967 162.675 230.227 162.675 230.227C162.675 230.227 148.816 230.227 150.076 225.187C151.336 220.147 172.755 184.239 172.755 184.239L169.605 150.851C169.605 150.851 167.085 134.472 182.204 135.732Z" fill="#D0CDE1"/>
<path opacity="0.1" d="M188.189 194.003V189.594L166.77 224.872L188.189 194.003Z" fill="black"/>
<path d="M146.643 94.7301L143.935 93.646C143.935 93.646 149.597 87.4128 157.474 87.9549L155.259 85.5158C155.259 85.5158 160.674 83.3477 165.597 89.0389C168.185 92.0306 171.18 95.5472 173.047 99.5086H175.946L174.736 102.174L178.972 104.838L174.624 104.36C175.036 106.66 174.895 109.026 174.213 111.262L174.33 113.368C174.33 113.368 169.29 105.57 169.29 104.486V107.196C169.29 107.196 166.582 104.757 166.582 103.131L165.105 105.028L164.367 102.047L155.259 105.028L156.736 102.589L151.074 103.402L153.289 100.421C153.289 100.421 146.889 103.944 146.643 106.925C146.397 109.907 143.197 113.701 143.197 113.701L141.72 110.991C141.72 110.991 139.504 98.7952 146.643 94.7301Z" fill="#2F2E41"/>
<path d="M455.658 88.8047H222.08V134.922H455.658V88.8047Z" fill="#F9DC25"/>
<path d="M455.658 142.707H222.08V188.824H455.658V142.707Z" fill="#E6E6E6"/>
<path d="M246.635 125.339C254.243 125.339 260.41 119.172 260.41 111.564C260.41 103.956 254.243 97.7886 246.635 97.7886C239.027 97.7886 232.86 103.956 232.86 111.564C232.86 119.172 239.027 125.339 246.635 125.339Z" fill="white"/>
<path d="M415.531 106.173H279.576V109.168H415.531V106.173Z" fill="white"/>
<path d="M415.531 113.959H279.576V116.954H415.531V113.959Z" fill="white"/>
<path d="M246.635 179.84C254.243 179.84 260.41 173.673 260.41 166.065C260.41 158.457 254.243 152.29 246.635 152.29C239.027 152.29 232.86 158.457 232.86 166.065C232.86 173.673 239.027 179.84 246.635 179.84Z" fill="white"/>
<path d="M415.531 160.675H279.576V163.67H415.531V160.675Z" fill="white"/>
<path d="M415.531 168.461H279.576V171.456H415.531V168.461Z" fill="white"/>
<path d="M415.531 160.675H279.576V163.67H415.531V160.675Z" fill="white"/>
<path d="M415.531 168.461H279.576V171.456H415.531V168.461Z" fill="white"/>
<path d="M455.658 195.659H222.08V241.776H455.658V195.659Z" fill="#E6E6E6"/>
<path d="M246.635 232.792C254.243 232.792 260.41 226.625 260.41 219.017C260.41 211.409 254.243 205.242 246.635 205.242C239.027 205.242 232.86 211.409 232.86 219.017C232.86 226.625 239.027 232.792 246.635 232.792Z" fill="white"/>
<path d="M415.531 213.627H279.576V216.621H415.531V213.627Z" fill="white"/>
<path d="M415.531 221.413H279.576V224.407H415.531V221.413Z" fill="white"/>
<path d="M415.531 213.627H279.576V216.621H415.531V213.627Z" fill="white"/>
<path d="M415.531 221.413H279.576V224.407H415.531V221.413Z" fill="white"/>
<path d="M245.38 116.771L240.446 110.193L241.615 109.317L245.634 114.675L261.458 101.729L262.383 102.86L245.38 116.771Z" fill="#F9DC25"/>
</g>
<defs>
<clipPath id="clip0">
<rect width="455.658" height="400" fill="white"/>
</clipPath>
</defs>
</svg>
