<svg width="382" height="323" viewBox="0 0 382 323" fill="none" xmlns="http://www.w3.org/2000/svg">
<path d="M106.122 168.175H58.6172V221.297H106.122V168.175Z" fill="#CCCCCC"/>
<path d="M34.4334 301.196H10.2491L7.65796 280.466H37.0245L34.4334 301.196Z" fill="#E6E6E6"/>
<path d="M82.9962 286.18L82.1801 297.338C82.1432 297.843 82.2146 298.35 82.3897 298.825C82.5648 299.301 82.8395 299.733 83.1953 300.093C83.5511 300.453 83.9799 300.733 84.4528 300.914C84.9257 301.096 85.4318 301.173 85.9373 301.143L91.6681 300.796C91.9336 300.779 92.1923 300.705 92.4258 300.578C92.6594 300.45 92.862 300.273 93.0193 300.058C93.1765 299.844 93.2846 299.597 93.3359 299.336C93.3871 299.075 93.3802 298.806 93.3157 298.548L90.1347 285.823L82.9962 286.18Z" fill="#E6E6E6"/>
<path d="M130.931 292.778C137.675 294.356 142.494 296.599 145.659 299.634C146.786 300.707 148.261 301.339 149.815 301.416C151.8 301.52 153.423 301.298 154.643 300.753H154.643C154.955 300.615 155.225 300.396 155.424 300.119C155.624 299.842 155.745 299.516 155.776 299.176C155.813 298.83 155.757 298.481 155.614 298.165C155.47 297.849 155.245 297.576 154.961 297.376L138.965 285.994L132.17 288.712L130.585 290.298C130.414 290.469 130.284 290.678 130.207 290.908C130.13 291.139 130.107 291.383 130.141 291.624C130.174 291.864 130.263 292.094 130.4 292.294C130.537 292.494 130.719 292.66 130.931 292.778H130.931Z" fill="#E6E6E6"/>
<path d="M110.174 110.602L64.4519 110.179C64.5669 103.519 66.1163 96.9788 69.5032 91.1265C71.7277 87.2829 71.6796 83.1 71.1435 79.576C70.3163 74.1376 72.24 68.5734 76.5146 65.1116C79.7813 62.4613 83.9043 61.0971 88.1069 61.2758L88.9947 61.3128C91.8867 61.433 94.702 62.2778 97.1824 63.7697C99.6628 65.2616 101.729 67.3527 103.19 69.8511C104.676 72.5183 105.275 75.5887 104.901 78.6188C104.611 81.4698 105.305 84.3498 106.927 87.2573C109.725 93.6417 110.331 101.811 110.174 110.602Z" fill="#2F2E41"/>
<path d="M140.765 286.588L131.792 288.929L88.0946 193.726L90.8257 286.588H81.8521C72.2633 242.899 54.9513 192.477 62.7346 176.558L109.163 173.827L140.765 286.588Z" fill="#F9DC25"/>
<path d="M87.7044 94.6211C94.3842 94.6211 99.7992 89.2058 99.7992 82.5257C99.7992 75.8455 94.3842 70.4302 87.7044 70.4302C81.0246 70.4302 75.6096 75.8455 75.6096 82.5257C75.6096 89.2058 81.0246 94.6211 87.7044 94.6211Z" fill="#FFB9B9"/>
<path d="M98.2387 104.766L78.3408 103.595C80.2909 99.1191 81.0698 94.8089 80.2916 90.7192H95.1175C95.0839 93.8593 96.6464 99.2911 98.2387 104.766Z" fill="#FFB9B9"/>
<path d="M110.723 177.339L67.0264 180.46L71.513 103.01L79.1211 100.864L87.7043 102.815L96.2875 98.5227L101.75 100.474L110.723 177.339Z" fill="#F9DC25"/>
<path d="M80.4963 92.0386C85.2391 94.1785 90.2122 94.0916 95.3886 92.0386C93.8824 89.2499 96.1339 87.0658 97.2898 84.2507L77.9614 83.6277C79.4395 86.0732 81.6205 88.9626 80.4963 92.0386Z" fill="white"/>
<path d="M78.3661 84.0837L78.4768 83.791L78.0634 83.6344L75.4654 82.4139L75.3326 82.697L77.9416 83.9222L78.3661 84.0837Z" fill="white"/>
<path d="M99.6888 82.0173L99.8889 82.2578L96.662 84.9511L96.4619 84.7105L99.6888 82.0173Z" fill="white"/>
<path d="M78.4539 90.2837L80.6965 91.8369L80.5189 92.0941L78.2763 90.541L78.4539 90.2837Z" fill="white"/>
<path d="M97.34 89.5877L97.5525 89.8171L94.9879 92.1999L94.7754 91.9705L97.34 89.5877Z" fill="white"/>
<path d="M74.4391 233.134L44.5923 226.306C53.4673 196.873 69.456 129.541 64.2951 105.546L79.9012 98.5227L74.4391 233.134Z" fill="#E6E6E6"/>
<path d="M60.0034 148.075L48.689 141.052L58.3382 112.79C59.4144 109.873 61.4757 107.425 64.1658 105.867L67.4163 103.985L65.4656 132.468L60.0034 148.075Z" fill="#E6E6E6"/>
<path d="M136.669 226.696C127.248 232.146 103.701 235.184 93.3616 231.378C92.6008 204.785 91.1088 129.565 95.8976 97.7422L113.064 104.765L111.504 125.835C103.297 143.859 127.128 206.636 136.669 226.696Z" fill="#E6E6E6"/>
<path d="M135.303 144.563L124.769 141.052L110.723 125.054L113.065 104.765L136.474 137.54L135.303 144.563Z" fill="#E6E6E6"/>
<path d="M102.289 159.75C102.462 160.507 102.927 161.164 103.583 161.578C104.239 161.992 105.033 162.129 105.79 161.958L114.732 159.933L113.439 154.225L104.497 156.25C103.74 156.421 103.082 156.887 102.668 157.543C102.254 158.199 102.118 158.993 102.289 159.75Z" fill="#FFB9B9"/>
<path d="M98.2386 79.4041C91.5206 76.6416 84.8858 76.4417 78.3407 79.0139L75.6096 69.2595H100.579L98.2386 79.4041Z" fill="#2F2E41"/>
<path d="M110.333 153.148L115.405 162.512C123.936 160.133 131.33 152.631 138.424 143.784L136.473 137.541L124.379 140.662L110.333 153.148Z" fill="#E6E6E6"/>
<path d="M106.627 133.833H105.066C105.066 111.759 100.521 96.3764 96.0926 96.3764L95.7024 94.8157C99.6742 94.8157 102.206 101.218 103.631 106.589C105.563 113.87 106.627 123.546 106.627 133.833Z" fill="#3F3D56"/>
<path d="M70.7327 128.371H69.1721C69.1721 108.155 73.7482 95.5964 80.4866 95.5964L80.0964 97.1571C75.4355 97.1571 70.7327 106.809 70.7327 128.371Z" fill="#3F3D56"/>
<path d="M105.846 138.126C108.001 138.126 109.748 136.379 109.748 134.224C109.748 132.069 108.001 130.322 105.846 130.322C103.692 130.322 101.945 132.069 101.945 134.224C101.945 136.379 103.692 138.126 105.846 138.126Z" fill="#3F3D56"/>
<path d="M64.4901 137.735H62.9294C62.9294 132.141 66.0798 127.591 69.9522 127.591V129.151C66.9403 129.151 64.4901 133.002 64.4901 137.735Z" fill="#3F3D56"/>
<path d="M76.9752 137.735H75.4146C75.4146 133.002 72.9643 129.151 69.9524 129.151V127.591C73.8248 127.591 76.9752 132.141 76.9752 137.735Z" fill="#3F3D56"/>
<path d="M76.1949 139.686C77.0568 139.686 77.7555 138.987 77.7555 138.125C77.7555 137.263 77.0568 136.565 76.1949 136.565C75.333 136.565 74.6343 137.263 74.6343 138.125C74.6343 138.987 75.333 139.686 76.1949 139.686Z" fill="#3F3D56"/>
<path d="M63.7098 139.686C64.5717 139.686 65.2704 138.987 65.2704 138.125C65.2704 137.263 64.5717 136.565 63.7098 136.565C62.8479 136.565 62.1492 137.263 62.1492 138.125C62.1492 138.987 62.8479 139.686 63.7098 139.686Z" fill="#3F3D56"/>
<path d="M44.2021 123.774L53.9393 125.513L76.1948 157.16L64.3713 154.377L44.2021 123.774Z" fill="#F9A826"/>
<path d="M42.4749 123.386C42.3265 123.388 42.1815 123.431 42.0549 123.508C41.9284 123.586 41.8249 123.696 41.7555 123.827C41.686 123.958 41.6531 124.105 41.6601 124.254C41.6671 124.402 41.7138 124.545 41.7954 124.669L62.5987 156.235C62.7148 156.411 62.8941 156.537 63.0997 156.585L72.7789 158.862C72.9421 158.901 73.1131 158.889 73.2692 158.828C73.4254 158.767 73.5593 158.66 73.6532 158.521C73.7471 158.382 73.7966 158.218 73.795 158.05C73.7935 157.882 73.741 157.719 73.6445 157.582L50.8038 125.103C50.7418 125.015 50.663 124.939 50.5719 124.881C50.4808 124.823 50.3792 124.784 50.2728 124.765L42.6309 123.4C42.5794 123.391 42.5272 123.386 42.4749 123.386Z" fill="#3F3D56"/>
<path d="M55.4521 145.955L56.0303 151.78L65.154 150.874C65.9262 150.797 66.6364 150.417 67.1283 149.817C67.6202 149.216 67.8535 148.445 67.7768 147.673C67.7002 146.9 67.3199 146.19 66.7196 145.698C66.1193 145.206 65.3482 144.973 64.576 145.05L55.4521 145.955Z" fill="#FFB9B9"/>
<path d="M47.5186 145.281C47.5318 147.267 48.3293 149.167 49.7374 150.567C51.1454 151.968 53.0499 152.755 55.0357 152.757H56.5359L57.6281 143.655L48.585 140.399L47.5186 145.281Z" fill="#E6E6E6"/>
<path d="M4.03876 272.796C10.266 281.137 23.1927 282.014 23.1927 282.014C23.1927 282.014 26.0229 269.37 19.7956 261.03C13.5683 252.69 0.641685 251.812 0.641685 251.812C0.641685 251.812 -2.18853 264.456 4.03876 272.796Z" fill="#E6E6E6"/>
<path d="M35.7618 275.932C31.6526 281.435 23.1226 282.015 23.1226 282.015C23.1226 282.015 21.2551 273.671 25.3643 268.168C29.4735 262.664 38.0034 262.085 38.0034 262.085C38.0034 262.085 39.871 270.429 35.7618 275.932Z" fill="#E6E6E6"/>
<path opacity="0.1" d="M223.945 47.8983C207.701 41.8412 187.927 47.0505 171.04 54.648C118.002 78.5156 79.3624 123.823 48.663 169.982C37.5476 186.696 26.9897 204.145 22.8111 222.804C14.3028 260.78 36.494 300.096 74.2344 313.873C87.0687 318.563 101.169 320.486 115.29 321.557C140.402 323.465 166.401 322.708 191.311 315.641C209.075 310.59 225.879 302.466 241.997 293.49C287.009 268.41 328.115 235.841 357.714 196.057C370.696 178.607 381.678 158.935 381.994 138.802C382.311 118.668 369.232 98.4366 347.713 95.013C338.817 93.5989 329.406 95.0707 320.225 96.5859C306.708 98.819 293.007 101.168 279.644 100.193C265.839 99.1798 247.884 93.7684 245.366 80.5467C242.702 66.3509 240.167 53.9481 223.945 47.8983Z" fill="#A0AEDF"/>
<path d="M199.667 104.441H181.778V86.7992H199.68L199.667 104.441ZM199.409 77.8412H182.036C182.036 50.4265 208.075 52.0286 208.075 34.6847C208.075 25.1315 200.262 17.478 190.716 17.478C181.17 17.478 173.359 25.7294 173.359 34.9565H156C155.992 30.3919 156.885 25.8706 158.627 21.652C160.369 17.4334 162.925 13.6003 166.151 10.3726C169.376 7.14498 173.206 4.5862 177.422 2.84302C181.637 1.09984 186.155 0.206565 190.716 0.214407C209.891 0.214407 225.432 15.5239 225.432 34.6847C225.432 56.3717 199.396 58.8409 199.396 77.8412H199.409Z" fill="#687ECD"/>
<path opacity="0.3" d="M169.71 166.237H165.096V161.676H169.71V166.237ZM169.641 159.378H165.166C165.166 152.312 171.878 152.724 171.878 148.248C171.875 147.663 171.758 147.084 171.532 146.544C171.305 146.004 170.975 145.514 170.56 145.101C170.144 144.689 169.651 144.363 169.11 144.141C168.568 143.92 167.988 143.807 167.403 143.81C166.222 143.837 165.097 144.321 164.264 145.161C163.432 146.001 162.957 147.131 162.939 148.313H158.465C158.495 145.963 159.446 143.719 161.114 142.065C162.782 140.41 165.032 139.478 167.381 139.469C169.729 139.459 171.987 140.374 173.668 142.016C175.348 143.657 176.317 145.894 176.365 148.243C176.352 153.834 169.641 154.471 169.641 159.368V159.378Z" fill="#A0AEDF"/>
<path opacity="0.3" d="M291.245 200.113H286.631V195.552H291.245V200.113ZM291.175 193.254H286.701C286.701 186.188 293.413 186.6 293.413 182.124C293.41 181.539 293.293 180.96 293.066 180.42C292.84 179.88 292.51 179.39 292.094 178.977C291.679 178.565 291.186 178.239 290.645 178.017C290.103 177.796 289.523 177.683 288.938 177.686C287.757 177.713 286.632 178.197 285.799 179.037C284.967 179.877 284.492 181.007 284.474 182.189H280C280.03 179.839 280.981 177.595 282.649 175.941C284.317 174.286 286.567 173.354 288.916 173.345C291.264 173.335 293.522 174.25 295.202 175.892C296.883 177.533 297.852 179.77 297.9 182.119C297.887 187.71 291.175 188.347 291.175 193.244V193.254Z" fill="#A0AEDF"/>
<path opacity="0.3" d="M218.266 211.111H213.652V206.563H218.266V211.111ZM218.199 204.254H213.724C213.724 197.186 220.436 197.6 220.436 193.125C220.434 192.54 220.316 191.96 220.09 191.421C219.863 190.881 219.533 190.391 219.118 189.979C218.702 189.567 218.209 189.241 217.668 189.019C217.126 188.798 216.547 188.686 215.962 188.689C214.775 188.71 213.643 189.193 212.806 190.034C211.968 190.875 211.491 192.01 211.474 193.197H207C207.03 190.848 207.981 188.603 209.649 186.949C211.317 185.294 213.567 184.362 215.916 184.353C218.264 184.344 220.522 185.258 222.202 186.9C223.883 188.541 224.852 190.778 224.9 193.128C224.908 198.718 218.199 199.358 218.199 204.254Z" fill="#A0AEDF"/>
<path opacity="0.3" d="M178.266 258.146H173.652V253.598H178.266V258.146ZM178.199 251.29H173.724C173.724 244.221 180.436 244.635 180.436 240.16C180.434 239.575 180.316 238.996 180.09 238.456C179.863 237.916 179.533 237.426 179.118 237.014C178.702 236.602 178.209 236.276 177.668 236.055C177.126 235.833 176.547 235.721 175.962 235.724C174.775 235.745 173.643 236.228 172.806 237.069C171.968 237.911 171.491 239.045 171.474 240.233H167C167.03 237.883 167.981 235.639 169.649 233.984C171.317 232.33 173.567 231.397 175.916 231.388C178.264 231.379 180.522 232.294 182.202 233.935C183.883 235.576 184.852 237.813 184.9 240.163C184.908 245.753 178.199 246.393 178.199 251.29Z" fill="#A0AEDF"/>
<path opacity="0.3" d="M246.157 150.813H242.813V147.523H246.157V150.813ZM246.108 145.841H242.865C242.865 140.721 247.73 141.019 247.73 137.778C247.728 137.354 247.642 136.934 247.478 136.543C247.314 136.152 247.075 135.797 246.773 135.499C246.472 135.2 246.115 134.964 245.723 134.804C245.331 134.643 244.91 134.562 244.487 134.564C243.628 134.581 242.81 134.931 242.205 135.541C241.6 136.15 241.255 136.971 241.243 137.83H238C237.993 136.108 238.67 134.455 239.882 133.232C241.093 132.01 242.74 131.32 244.461 131.313C246.181 131.306 247.834 131.983 249.055 133.196C250.276 134.408 250.966 136.057 250.973 137.778C250.968 141.829 246.108 142.292 246.108 145.841Z" fill="#A0AEDF"/>
<path opacity="0.3" d="M246.157 255.892H242.813V252.602H246.157V255.892ZM246.108 250.92H242.865C242.865 245.8 247.73 246.098 247.73 242.857C247.728 242.433 247.642 242.014 247.478 241.622C247.314 241.231 247.075 240.876 246.773 240.578C246.472 240.279 246.115 240.043 245.723 239.883C245.331 239.722 244.91 239.641 244.487 239.643C243.628 239.66 242.81 240.01 242.205 240.62C241.6 241.229 241.255 242.05 241.243 242.909H238C237.993 241.188 238.67 239.534 239.882 238.311C241.093 237.089 242.74 236.399 244.461 236.392C246.181 236.385 247.834 237.062 249.055 238.275C250.276 239.487 250.966 241.136 250.973 242.857C250.968 246.908 246.108 247.371 246.108 250.92Z" fill="#A0AEDF"/>
<path opacity="0.3" d="M319.157 137.803H315.813V134.513H319.157V137.803ZM319.108 132.831H315.865C315.865 127.711 320.73 128.009 320.73 124.768C320.728 124.344 320.642 123.925 320.478 123.534C320.314 123.142 320.075 122.787 319.773 122.489C319.472 122.19 319.115 121.954 318.723 121.794C318.331 121.633 317.91 121.552 317.487 121.554C316.628 121.571 315.81 121.922 315.205 122.531C314.6 123.14 314.255 123.961 314.243 124.82H311C310.993 123.099 311.67 121.445 312.882 120.223C314.093 119 315.74 118.31 317.461 118.303C319.181 118.296 320.834 118.973 322.055 120.186C323.276 121.399 323.966 123.047 323.973 124.768C323.968 128.819 319.108 129.282 319.108 132.831Z" fill="#A0AEDF"/>
</svg>
