<svg width="24" height="24" viewBox="0 0 24 24" fill="none" xmlns="http://www.w3.org/2000/svg">
<path fill-rule="evenodd" clip-rule="evenodd" d="M14.6015 2.7876C14.6015 4.32472 13.351 5.57521 11.8139 5.57521C10.2768 5.57521 9.0263 4.32472 9.0263 2.7876C9.0263 1.25049 10.2768 0 11.8139 0C13.351 0 14.6015 1.25049 14.6015 2.7876ZM13.805 2.7876C13.805 1.68966 12.9118 0.796458 11.8139 0.796458C10.716 0.796458 9.82275 1.68966 9.82275 2.7876C9.82275 3.88555 10.716 4.77875 11.8139 4.77875C12.9118 4.77875 13.805 3.88555 13.805 2.7876ZM8.99115 6.37167H14.6018C15.6997 6.37167 16.5929 7.26487 16.593 8.36281V14.8412C16.593 15.5 16.0571 16.0359 15.3983 16.0359C15.2587 16.0359 15.1247 16.0116 15.0001 15.9674V22.5973C15.0001 23.3707 14.3708 24 13.5974 24C12.824 24 12.1947 23.3707 12.1947 22.5973V15.2395H11.3983V22.5973C11.3983 23.3707 10.769 23.9999 9.99559 23.9999C9.22217 23.9999 8.59292 23.3707 8.59292 22.5973V15.9675C8.4683 16.0116 8.33428 16.0359 8.19469 16.0359C7.53591 16.0359 7 15.5 7 14.8413V8.36281C7 7.26487 7.8932 6.37167 8.99115 6.37167ZM15.3982 15.2395C15.6178 15.2395 15.7965 15.0609 15.7965 14.8413V8.36281C15.7965 7.70404 15.2605 7.16813 14.6018 7.16813H8.99115C8.33237 7.16813 7.79646 7.70404 7.79646 8.36281V14.8413C7.79646 15.0609 7.97508 15.2395 8.19469 15.2395C8.4143 15.2395 8.59292 15.0609 8.59292 14.8413V8.36281C8.59292 8.14289 8.77122 7.96458 8.99115 7.96458C9.21108 7.96458 9.38938 8.14289 9.38938 8.36281V22.5973C9.38938 22.9315 9.66129 23.2035 9.99553 23.2035C10.3298 23.2035 10.6017 22.9316 10.6017 22.5973V14.8413C10.6017 14.6213 10.78 14.443 11 14.443H12.5929C12.8128 14.443 12.9911 14.6213 12.9911 14.8413V22.5973C12.9911 22.9315 13.2631 23.2035 13.5973 23.2035C13.9316 23.2035 14.2035 22.9315 14.2035 22.5973V8.36281C14.2035 8.14289 14.3818 7.96458 14.6018 7.96458C14.8217 7.96458 15 8.14289 15 8.36281V14.8413C15 15.0609 15.1787 15.2395 15.3982 15.2395Z" fill="#3F3D56" fill-opacity="0.8"/>
</svg>
