<svg width="24" height="24" viewBox="0 0 24 24" fill="none" xmlns="http://www.w3.org/2000/svg">
<path d="M12 4.27962C12.2115 4.27962 12.383 4.4511 12.383 4.6626V5.81154H12.5106C13.0033 5.81154 13.4042 6.21244 13.4042 6.70515V10.1872H17.7893C18.758 10.1872 19.5461 10.9754 19.5461 11.9441V18.7411C20.3313 18.9164 20.92 19.6187 20.92 20.4559C20.92 20.8233 20.8064 21.1645 20.6129 21.4468H23.617C23.8285 21.4468 24 21.6183 24 21.8298C24 22.0413 23.8285 22.2128 23.617 22.2128H23.3952L23.1744 22.9858C23.0119 23.5545 22.4213 24 21.8298 24H2.17021C1.57869 24 0.988084 23.5545 0.825599 22.9858L0.604748 22.2128H0.382978C0.171472 22.2128 0 22.0413 0 21.8298C0 21.6183 0.171472 21.4469 0.382978 21.4469H4.38117C4.36018 21.4002 4.33542 21.3545 4.30759 21.3033C4.20102 21.1072 4.06835 20.8631 4.06835 20.411C4.06835 19.959 4.20102 19.7149 4.30759 19.5188C4.39567 19.3567 4.45389 19.2496 4.45389 18.9923C4.45389 18.735 4.39572 18.6279 4.30764 18.4659C4.20102 18.2698 4.06835 18.0257 4.06835 17.5737C4.06835 17.1217 4.20107 16.8776 4.30764 16.6815C4.39567 16.5194 4.45389 16.4124 4.45389 16.1551C4.45389 15.8978 4.39572 15.7907 4.30764 15.6287C4.20102 15.4325 4.06835 15.1885 4.06835 14.7365C4.06835 14.2845 4.20107 14.0404 4.30764 13.8443C4.34604 13.7736 4.37872 13.7134 4.40343 13.6467C3.64366 13.4531 3.08001 12.7632 3.08001 11.944C3.08001 10.9754 3.86813 10.1872 4.83686 10.1872H10.5957V6.70515C10.5957 6.21244 10.9966 5.81154 11.4894 5.81154H11.617V4.6626C11.617 4.4511 11.7885 4.27962 12 4.27962ZM22.5986 22.2128H1.40134L1.56209 22.7753C1.63067 23.0154 1.92051 23.234 2.17021 23.234H21.8298C22.0794 23.234 22.3693 23.0154 22.4379 22.7753L22.5986 22.2128ZM17.7892 10.9532H4.83686C4.29048 10.9532 3.84597 11.3977 3.84597 11.944C3.84597 12.4904 4.29048 12.9349 4.83686 12.9349H17.529C17.7405 12.9349 17.912 13.1064 17.912 13.3179V21.4468H19.1631C19.7094 21.4468 20.154 21.0023 20.154 20.4559C20.154 19.9096 19.7094 19.4651 19.1631 19.4651C18.9516 19.4651 18.7801 19.2936 18.7801 19.0821V11.9441C18.7801 11.3977 18.3356 10.9532 17.7892 10.9532ZM17.1461 13.7008H5.18241C5.13543 13.9244 5.0522 14.0782 4.98056 14.21C4.89252 14.3721 4.83431 14.4791 4.83431 14.7364C4.83431 14.9937 4.89247 15.1008 4.98056 15.2628C5.08718 15.459 5.21984 15.703 5.21984 16.155C5.21984 16.607 5.08713 16.8511 4.98056 17.0472C4.89252 17.2093 4.83431 17.3163 4.83431 17.5736C4.83431 17.8309 4.89252 17.938 4.98061 18.1C5.08718 18.2962 5.21984 18.5402 5.21984 18.9922C5.21984 19.4442 5.08718 19.6883 4.98061 19.8845C4.89252 20.0465 4.83431 20.1536 4.83431 20.411C4.83431 20.6684 4.89252 20.7755 4.98061 20.9376C5.05225 21.0693 5.13549 21.2232 5.18246 21.4468H17.1461V19.3754H6.36878C6.15727 19.3754 5.9858 19.2039 5.9858 18.9924C5.9858 18.7809 6.15727 18.6095 6.36878 18.6095H17.1461V16.5381H9.4326C9.2211 16.5381 9.04963 16.3666 9.04963 16.1551C9.04963 15.9436 9.2211 15.7721 9.4326 15.7721H17.1461V13.7008ZM7.90069 15.7722C8.1122 15.7722 8.28367 15.9437 8.28367 16.1552C8.28367 16.3667 8.1122 16.5382 7.90069 16.5382H6.36878C6.15727 16.5382 5.9858 16.3667 5.9858 16.1552C5.9858 15.9437 6.15727 15.7722 6.36878 15.7722H7.90069ZM12.5106 6.57749H11.4894C11.4202 6.57749 11.3617 6.63596 11.3617 6.70515V10.1872H12.6383V6.70515C12.6383 6.63596 12.5798 6.57749 12.5106 6.57749ZM11.8466 0.0320361C11.9444 -0.0106532 12.0556 -0.0107042 12.1534 0.0320361C13.4974 0.619423 14.436 1.89403 14.436 3.13156C14.436 3.72931 14.2164 4.30444 13.8176 4.7511C13.6767 4.90888 13.4346 4.92252 13.2769 4.78168C13.1191 4.64085 13.1054 4.39871 13.2463 4.24097C13.5196 3.93484 13.6701 3.54088 13.6701 3.13156C13.6701 2.23462 12.991 1.29832 12 0.805499C11.009 1.29837 10.3299 2.23467 10.3299 3.13156C10.3299 3.54088 10.4804 3.93484 10.7538 4.24097C10.8946 4.39876 10.8809 4.64085 10.7231 4.78173C10.6501 4.84694 10.559 4.87901 10.4682 4.87901C10.3629 4.87906 10.2581 4.83586 10.1824 4.75105C9.78362 4.30439 9.56399 3.72926 9.56399 3.13151C9.56399 1.89398 10.5026 0.619423 11.8466 0.0320361Z" fill="#3F3D56" fill-opacity="0.8"/>
</svg>
