<svg width="100" height="52" viewBox="0 0 100 52" fill="none" xmlns="http://www.w3.org/2000/svg">
<path fill-rule="evenodd" clip-rule="evenodd" d="M29.3512 0.982225C28.1448 1.10787 28.4165 0.784265 23.2098 8.29324C17.8379 16.041 18.1143 15.6347 17.98 15.9739C16.9766 18.5081 20.2288 20.6558 22.1337 18.7167C22.3574 18.4889 31.271 5.72001 31.8171 4.84493C32.9512 3.02764 31.5025 0.758251 29.3512 0.982225ZM4.23437 4.69301C2.72508 5.04731 1.88368 6.8737 2.59155 8.25865C2.76061 8.58979 9.80538 18.5123 10.0771 18.8023C12.011 20.8665 15.3764 18.6509 14.2726 16.0402C14.1208 15.681 7.07239 5.76658 6.68802 5.37144C6.09067 4.75727 5.11261 4.48699 4.23437 4.69301ZM45.0511 13.1611C45.0511 18.0919 45.0501 18.139 44.9437 18.139C44.8714 18.139 44.8097 18.075 44.7535 17.9418C43.2382 14.3309 37.6406 13.5945 34.641 16.6115C31.8989 19.3697 31.548 25.3897 33.9274 28.8544C36.5953 32.7387 42.9672 32.4262 44.8032 28.3211C44.8701 28.1712 44.9398 28.0924 45.0054 28.0924C45.1003 28.0924 45.1052 28.1725 45.1052 29.7065V31.3204H46.0781H47.0512L47.0373 19.7666L47.0237 8.2126L46.0376 8.19777L45.0511 8.18321V13.1611ZM66.5607 19.7526V31.3204H68.7765H70.9924V26.3241C70.9924 22.1211 71.0052 21.2538 71.0736 20.8639C71.3958 19.0237 72.6018 18.0131 74.4782 18.0102C76.0826 18.0079 76.9896 18.6421 77.4325 20.0762L77.5569 20.4794L77.5728 25.9L77.5888 31.3204H79.8328H82.0767L82.0555 25.3889C82.0322 18.9909 82.0469 19.3257 81.7435 18.1809C81.1461 15.9263 79.3648 14.5081 76.8976 14.3231C74.3224 14.1298 72.2464 15.1532 71.3112 17.0763C71.2166 17.2712 71.1575 17.3321 71.0629 17.3321H70.9391L70.9252 12.7722L70.9114 8.2126L68.736 8.19855L66.5607 8.18451V19.7526ZM47.8615 10.1225V12.0056H51.1581H54.455V21.663V31.3204H56.7516H59.0484L59.062 21.6765L59.0756 12.0324L62.3858 12.0186L65.696 12.0048V10.1222V8.2394H56.7787H47.8615V10.1225ZM83.0984 14.6745C83.0984 14.6925 84.2708 16.5746 85.7041 18.857C87.1371 21.1394 88.3093 23.0433 88.3088 23.088C88.3082 23.1327 87.1517 24.9854 85.7388 27.2046C84.3257 29.424 83.1522 31.2699 83.1308 31.3071C83.0999 31.3605 83.5765 31.3743 85.4378 31.3743H87.7838L89.3456 28.6031C90.8742 25.8912 90.9111 25.8321 91.0637 25.8457C91.2098 25.8587 91.3177 26.0322 92.7862 28.6169L94.3525 31.3743H96.8051C98.1539 31.3743 99.2577 31.3639 99.2577 31.3508C99.2577 31.3381 98.0659 29.4378 96.6094 27.1284C95.1528 24.8187 93.9613 22.9189 93.9613 22.9064C93.9613 22.8939 95.1408 21.0392 96.5824 18.7846C98.0241 16.5301 99.2036 14.6756 99.2036 14.6636C99.2036 14.6517 98.1153 14.6428 96.785 14.6436L94.3666 14.6454L92.8892 17.4145C91.5006 20.0169 91.4031 20.1834 91.2678 20.1815C91.1335 20.18 91.0266 19.9974 89.6464 17.4109L88.169 14.6418H85.6338C84.2392 14.6418 83.0984 14.6566 83.0984 14.6745ZM40.2677 16.5262C43.2398 16.8139 45.0219 19.3033 45.0237 23.1694C45.0253 26.9991 43.2905 29.4363 40.3294 29.7651C36.8391 30.1524 34.4098 27.4587 34.4059 23.1965C34.4025 19.3923 36.2502 16.786 39.1321 16.5293C39.4002 16.5056 39.644 16.4832 39.6738 16.4799C39.7036 16.4767 39.9709 16.4976 40.2677 16.5262ZM11.5436 26.5876C10.9535 26.669 10.4754 26.9083 10.0777 27.3214C9.74188 27.6702 0.437879 41.0954 0.24373 41.5113C-0.934491 44.0354 2.43921 46.328 4.37364 44.3182C4.75907 43.9176 13.9755 30.6368 14.205 30.1511C14.8938 28.6928 13.9358 26.8152 12.3988 26.6112C11.9363 26.5498 11.8365 26.5472 11.5436 26.5876ZM19.9962 26.6659C18.3767 27.0165 17.5468 28.8205 18.3127 30.3251C18.5128 30.7185 32.6431 50.4935 32.917 50.7635C35.0706 52.8877 38.4851 49.9675 36.7701 47.4684C35.2752 45.2903 22.5011 27.4702 22.3098 27.2962C21.6801 26.7236 20.8162 26.4882 19.9962 26.6659ZM94.4476 34.5851C93.9516 34.7396 93.8278 35.2661 94.2155 35.5699C94.516 35.8053 95.0407 35.6212 95.1223 35.252C95.2062 34.8725 94.8032 34.4743 94.4476 34.5851ZM58.4542 35.2481V35.6784H59.2107H59.9674V37.8843V40.0902H60.5078H61.0482V37.8843V35.6784H61.8049H62.5614V35.2481V34.8176H60.5078H58.4542V35.2481ZM62.9939 37.4538V40.0902H63.4802H63.9667L63.9677 38.9199C63.9693 37.3682 64.065 37.1351 64.7177 37.0881C65.4169 37.0379 65.4794 37.1791 65.4797 38.8125L65.4799 40.0902H65.9934H66.5068V38.7152C66.5068 37.0881 66.482 36.9473 66.1332 36.5889C65.5599 35.9997 64.5424 36.1076 64.0642 36.8084C63.9764 36.9369 63.9722 36.8971 63.9696 35.8803L63.9667 34.8176H63.4802H62.9939V37.4538ZM40.8329 35.9877C40.83 37.0524 40.8259 37.0979 40.7388 36.9697C39.6962 35.4295 37.6236 36.6838 37.9625 38.6502C38.2193 40.1428 39.8157 40.7138 40.6578 39.6147L40.8358 39.3824V39.7362V40.0902H41.0519H41.268V37.4809V34.8715H41.0519H40.8358L40.8329 35.9877ZM55.3196 37.4809V40.0902H55.5357H55.7518V37.4809V34.8715H55.5357H55.3196V37.4809ZM42.325 35.0447C42.1643 35.2731 42.2946 35.5715 42.5546 35.5699C42.7313 35.5689 42.7995 35.5273 42.8831 35.3691C43.0535 35.0473 42.535 34.7464 42.325 35.0447ZM47.7347 35.0236C47.5409 35.237 47.6898 35.5707 47.9791 35.5707C48.2558 35.5707 48.4 35.199 48.1949 35.0143C48.0645 34.8967 47.8461 34.9011 47.7347 35.0236ZM91.5719 35.8264L91.5563 36.2973L91.2456 36.3134L90.9349 36.3295V36.7007V37.0719L91.2456 37.0881L91.5563 37.1042L91.5834 38.3416C91.613 39.6995 91.6242 39.7458 91.9775 39.9555C92.1753 40.0731 92.7264 40.149 93.0831 40.1079L93.3668 40.0754V39.7063V39.3369H93.128C92.5965 39.3369 92.556 39.2443 92.556 38.0214V37.0774H92.9615H93.3668V36.7007V36.3241H92.9615H92.556V35.8399V35.3556H92.0718H91.5876L91.5719 35.8264ZM49.4714 35.8803L49.4557 36.3508L49.145 36.367L48.8343 36.3831V36.5688V36.7546H49.1586H49.4829V38.1668C49.4831 39.9282 49.5179 40.013 50.2767 40.1155C50.6765 40.1693 50.78 40.1246 50.78 39.8983C50.78 39.7149 50.7781 39.7136 50.533 39.7136C49.9537 39.7136 49.9151 39.6082 49.9151 38.0214V36.7546H50.3475H50.78V36.5662V36.3779H50.3475H49.9151V35.8935V35.4094H49.7011H49.487L49.4714 35.8803ZM68.3012 36.3152C66.7985 36.8482 66.7172 39.358 68.1813 40.0278C69.1363 40.4648 70.4849 39.9956 70.7468 39.1353C70.8165 38.9056 69.9276 38.9553 69.6872 39.1944C69.1698 39.7094 68.2301 39.3634 68.1703 38.6358L68.1552 38.4493L69.4656 38.4348L70.7763 38.4205V38.0617C70.7763 36.689 69.5962 35.8561 68.3012 36.3152ZM73.174 36.2676C72.9286 36.3259 72.6815 36.5186 72.5613 36.7455L72.4565 36.9429L72.4541 36.6045L72.4515 36.2663L71.9516 36.2817L71.4518 36.2973L71.4377 38.1936L71.4233 40.0902H71.9375H72.4515V38.942C72.4515 37.3451 72.5871 37.1115 73.5082 37.1221L73.9109 37.1268V36.7054V36.2837L73.7418 36.2502C73.5393 36.2096 73.3998 36.214 73.174 36.2676ZM75.2592 36.2897C74.7654 36.4224 74.4092 36.7395 74.2987 37.1445L74.2438 37.3464H74.7045C75.1304 37.3464 75.1733 37.3362 75.2705 37.2132C75.6347 36.7522 76.4808 36.9627 76.5451 37.5303C76.5783 37.8235 76.6295 37.8016 75.7387 37.8739C74.3705 37.985 73.8072 38.6041 74.2305 39.5315C74.5537 40.2406 75.8432 40.3806 76.3651 39.7633C76.5409 39.5552 76.5589 39.563 76.5589 39.8481V40.0902H77.0455H77.5318L77.5315 38.678C77.5313 37.0589 77.5093 36.9281 77.1863 36.6183C76.7986 36.2465 75.9556 36.1027 75.2592 36.2897ZM80.1738 36.2905C79.9016 36.3636 79.6559 36.5371 79.4978 36.7681L79.3962 36.9164L79.3693 36.6068L79.3424 36.2973L78.8425 36.2817L78.3424 36.2663V38.8239V41.3815H78.8558H79.3693V40.4669C79.3693 39.9638 79.3821 39.5523 79.398 39.5523C79.4137 39.5523 79.5046 39.6407 79.6003 39.749C80.2311 40.4641 81.4858 40.2349 81.9316 39.3231C82.714 37.722 81.6541 35.8935 80.1738 36.2905ZM83.9089 36.2637C82.5692 36.7002 82.1454 38.6842 83.1765 39.6917C84.0563 40.5515 85.9583 40.2193 86.2094 39.1621L86.2447 39.0141H85.801C85.3809 39.0141 85.3498 39.0224 85.2105 39.1709C84.684 39.732 83.646 39.3351 83.64 38.5703L83.6387 38.4223H84.9706H86.3025L86.2714 38.0053C86.21 37.1828 85.9278 36.6898 85.3479 36.3919C85.0529 36.2408 84.2105 36.1656 83.9089 36.2637ZM86.9022 36.3482C86.8209 36.559 86.9116 39.2027 87.0075 39.4175C87.3963 40.2903 88.6811 40.4654 89.2448 39.7229L89.4217 39.4901V39.7901V40.0902H89.9356H90.4499L90.4355 38.1936L90.4214 36.2973L89.9215 36.2817L89.4217 36.2663V37.4806C89.4217 39.0952 89.331 39.307 88.6404 39.3091C87.9743 39.3109 87.9082 39.1486 87.9082 37.5095V36.2702H87.4203C87.0438 36.2702 86.9252 36.2882 86.9022 36.3482ZM94.0695 38.1804V40.0902H94.5558H95.0421V38.1804V36.2702H94.5558H94.0695V38.1804ZM95.6671 36.3358C95.6888 36.3737 95.9582 36.8074 96.266 37.2993C96.5738 37.7912 96.8257 38.2066 96.8257 38.2222C96.8257 38.2378 96.5702 38.6507 96.2582 39.1397C95.9462 39.629 95.6906 40.0437 95.6906 40.0616C95.6906 40.0796 95.9274 40.0871 96.2164 40.0788L96.7424 40.0632L97.0766 39.4729C97.492 38.7394 97.4359 38.7394 97.849 39.4727L98.1968 40.0902H98.7573C99.191 40.0902 99.3092 40.0749 99.2786 40.0229C99.2566 39.9859 98.9958 39.5702 98.6987 39.0989C98.4016 38.6278 98.1586 38.2155 98.1586 38.1827C98.1586 38.1502 98.4181 37.7178 98.7351 37.222C99.0523 36.7265 99.3118 36.3087 99.3118 36.2936C99.3118 36.2788 99.0659 36.2733 98.7654 36.2819L98.219 36.2973L97.8864 36.9159C97.7032 37.2561 97.5349 37.5347 97.5119 37.5347C97.4889 37.5347 97.3191 37.2561 97.1343 36.9159L96.7985 36.2973L96.2132 36.2819C95.7489 36.2697 95.636 36.2809 95.6671 36.3358ZM44.6937 36.3953C43.7028 36.7676 43.3135 38.299 43.9398 39.3629C44.4258 40.1886 45.6213 40.3041 46.2806 39.5887L46.5103 39.3392V39.8788C46.5103 40.4763 46.4583 40.6339 46.1862 40.8618C45.7392 41.2364 44.753 41.1802 44.417 40.7609C44.2139 40.5075 43.7715 40.4716 43.8648 40.7159C44.2607 41.7525 46.301 41.7845 46.8534 40.7627C46.966 40.5546 46.9702 40.4786 46.9856 38.4626L47.0015 36.3779H46.7831H46.5644V36.7234V37.0686L46.2537 36.7616C45.8304 36.3433 45.2165 36.1992 44.6937 36.3953ZM52.2778 36.3982C51.86 36.553 51.6303 36.771 51.4855 37.15C51.3948 37.387 51.8427 37.3594 51.9958 37.1182C52.4774 36.3602 53.8338 36.6963 53.8142 37.5685C53.8061 37.9267 53.7946 37.9382 53.4382 37.9384C51.8205 37.9408 51.1602 38.3895 51.3433 39.3619C51.5067 40.2286 52.9104 40.4425 53.6308 39.7105L53.8605 39.4771V39.7836V40.0902H54.0766H54.2927V38.6993C54.2927 36.9882 54.2295 36.7582 53.6815 36.4749C53.393 36.3259 52.5916 36.2822 52.2778 36.3982ZM42.349 38.2339V40.0902H42.5651H42.7812V38.2339V36.3779H42.5651H42.349V38.2339ZM47.7533 38.2339V40.0902H47.9697H48.1857V38.2339V36.3779H47.9697H47.7533V38.2339ZM40.2403 36.9075C40.9918 37.3617 41.0299 39.0474 40.2996 39.5375C39.3722 40.1597 38.4307 39.5031 38.4307 38.2339C38.4307 36.9955 39.3142 36.3477 40.2403 36.9075ZM45.6153 36.7593C46.6589 37.0209 46.8912 38.8707 45.9573 39.4862C45.6187 39.7092 44.9976 39.7019 44.667 39.4709C43.8335 38.8882 44.0203 36.9772 44.9304 36.7775C45.0117 36.7595 45.1026 36.7369 45.1321 36.727C45.2385 36.6919 45.3851 36.7015 45.6153 36.7593ZM69.4154 37.079C69.6054 37.1942 69.8351 37.6169 69.7823 37.7537C69.7585 37.8154 69.5978 37.8305 68.9675 37.8305H68.1821L68.1823 37.6825C68.1831 37.1453 68.9257 36.7819 69.4154 37.079ZM84.8533 37.0464C85.0547 37.1302 85.2601 37.4569 85.2601 37.6939V37.8305H84.4428H83.6254L83.6591 37.6619C83.7712 37.1034 84.316 36.8227 84.8533 37.0464ZM80.6821 37.1661C81.0539 37.3576 81.2347 38.3122 80.9967 38.8257C80.5499 39.7893 79.3716 39.3577 79.3698 38.23C79.3682 37.2936 79.9747 36.8019 80.6821 37.1661ZM53.8064 38.6564C53.8064 39.782 52.0397 40.2531 51.7737 39.1983C51.6418 38.6743 52.0507 38.4108 53.1307 38.324C53.4578 38.2974 53.7434 38.2727 53.7659 38.2685C53.7881 38.2644 53.8064 38.4389 53.8064 38.6564ZM76.5488 38.6226C76.611 39.2635 75.5835 39.7175 75.1983 39.2191C74.9088 38.8445 75.1942 38.5451 75.907 38.4756C76.5088 38.4166 76.5292 38.4212 76.5488 38.6226Z" fill="#36392F"/>
</svg>
