<svg width="110" height="19" viewBox="0 0 110 19" fill="none" xmlns="http://www.w3.org/2000/svg">
<path d="M12.848 12.888C12.56 14.552 11.864 15.848 10.76 16.776C9.672 17.688 8.336 18.144 6.752 18.144C4.96 18.144 3.488 17.568 2.336 16.416C1.568 15.632 1.088 14.784 0.896 13.872C0.704 12.944 0.608 11.472 0.608 9.456C0.608 7.44 0.704 5.976 0.896 5.064C1.088 4.136 1.568 3.28 2.336 2.496C3.488 1.344 4.96 0.767999 6.752 0.767999C8.352 0.767999 9.688 1.232 10.76 2.16C11.848 3.072 12.544 4.36 12.848 6.024H10.208C10.016 5.112 9.624 4.392 9.032 3.864C8.44 3.336 7.68 3.072 6.752 3.072C5.728 3.072 4.888 3.424 4.232 4.128C3.8 4.576 3.52 5.152 3.392 5.856C3.264 6.544 3.2 7.744 3.2 9.456C3.2 11.168 3.264 12.376 3.392 13.08C3.52 13.768 3.8 14.336 4.232 14.784C4.888 15.488 5.728 15.84 6.752 15.84C7.68 15.84 8.44 15.576 9.032 15.048C9.64 14.52 10.048 13.8 10.256 12.888H12.848ZM26.4839 5.04C26.6759 5.952 26.7719 7.424 26.7719 9.456C26.7719 11.488 26.6759 12.96 26.4839 13.872C26.3079 14.784 25.8279 15.632 25.0439 16.416C23.8919 17.568 22.4199 18.144 20.6279 18.144C18.8359 18.144 17.3639 17.568 16.2119 16.416C15.4279 15.632 14.9399 14.784 14.7479 13.872C14.5719 12.96 14.4839 11.488 14.4839 9.456C14.4839 7.424 14.5719 5.952 14.7479 5.04C14.9399 4.128 15.4279 3.28 16.2119 2.496C17.3639 1.344 18.8359 0.767999 20.6279 0.767999C22.4199 0.767999 23.8919 1.344 25.0439 2.496C25.8279 3.28 26.3079 4.128 26.4839 5.04ZM23.9879 13.08C24.1159 12.392 24.1799 11.184 24.1799 9.456C24.1799 7.728 24.1159 6.52 23.9879 5.832C23.8599 5.128 23.5879 4.56 23.1719 4.128C22.4999 3.424 21.6519 3.072 20.6279 3.072C19.6039 3.072 18.7559 3.424 18.0839 4.128C17.6679 4.576 17.3959 5.152 17.2679 5.856C17.1399 6.544 17.0759 7.744 17.0759 9.456C17.0759 11.168 17.1399 12.368 17.2679 13.056C17.3959 13.744 17.6679 14.312 18.0839 14.76C18.7719 15.48 19.6199 15.84 20.6279 15.84C21.6359 15.84 22.4839 15.48 23.1719 14.76C23.5879 14.328 23.8599 13.768 23.9879 13.08ZM35.9516 18H33.5036V3.576L30.1676 6.504V3.792L33.5036 0.912H35.9516V18ZM50.7164 5.88C50.7164 6.984 50.2924 8.384 49.4444 10.08L45.5564 18H42.9404L46.6124 10.656C46.1964 10.832 45.6844 10.92 45.0764 10.92C43.8124 10.92 42.7484 10.464 41.8844 9.552C41.0364 8.64 40.6124 7.448 40.6124 5.976C40.6124 4.408 41.0764 3.152 42.0044 2.208C42.9484 1.248 44.1644 0.767999 45.6524 0.767999C47.1564 0.767999 48.3724 1.232 49.3004 2.16C50.2444 3.072 50.7164 4.312 50.7164 5.88ZM48.2684 5.928C48.2684 5.032 48.0284 4.312 47.5484 3.768C47.0684 3.224 46.4364 2.952 45.6524 2.952C44.8844 2.952 44.2604 3.224 43.7804 3.768C43.3004 4.296 43.0604 5.016 43.0604 5.928C43.0604 6.792 43.2924 7.504 43.7564 8.064C44.2204 8.608 44.8524 8.88 45.6524 8.88C46.4364 8.88 47.0684 8.616 47.5484 8.088C48.0284 7.56 48.2684 6.84 48.2684 5.928ZM72.3269 18H69.1829L67.7909 16.32C66.3989 17.536 64.8229 18.144 63.0629 18.144C61.3029 18.144 59.9429 17.688 58.9829 16.776C58.0229 15.864 57.5429 14.624 57.5429 13.056C57.5429 11.984 57.8389 11.088 58.4309 10.368C59.0389 9.632 59.8709 8.92 60.9269 8.232C60.5749 7.832 60.2949 7.496 60.0869 7.224C59.8949 6.936 59.6869 6.544 59.4629 6.048C59.2549 5.552 59.1509 5.056 59.1509 4.56C59.1509 3.456 59.5349 2.552 60.3029 1.848C61.0709 1.128 62.0789 0.767999 63.3269 0.767999C64.5269 0.767999 65.5029 1.128 66.2549 1.848C67.0069 2.568 67.3829 3.48 67.3829 4.584C67.3829 5.768 66.7749 6.776 65.5589 7.608L64.3109 8.472L67.9109 12.768C68.5029 11.936 68.8069 10.792 68.8229 9.336H71.1749C71.0949 11.608 70.5269 13.36 69.4709 14.592L72.3269 18ZM66.3269 14.592L62.2709 9.768C61.7589 10.12 61.3669 10.416 61.0949 10.656C60.8229 10.896 60.5669 11.224 60.3269 11.64C60.0869 12.056 59.9669 12.512 59.9669 13.008C59.9669 13.856 60.2549 14.552 60.8309 15.096C61.4229 15.64 62.1669 15.912 63.0629 15.912C64.2469 15.912 65.3349 15.472 66.3269 14.592ZM65.0309 4.608C65.0309 4.128 64.8709 3.728 64.5509 3.408C64.2309 3.072 63.8229 2.904 63.3269 2.904C62.8149 2.904 62.4069 3.064 62.1029 3.384C61.7989 3.688 61.6469 4.088 61.6469 4.584C61.6469 5.128 62.0869 5.912 62.9669 6.936L63.7829 6.384C64.6149 5.824 65.0309 5.232 65.0309 4.608ZM94.5918 18H91.9998V6.576L88.0638 14.904H86.1438L82.1118 6.576V18H79.5198V0.912H82.1118L87.1038 11.544L91.9998 0.912H94.5918V18ZM109.003 18H98.0832V0.912H109.003V3.24H100.675V8.232H107.779V10.536H100.675V15.672H109.003V18Z" fill="#3F3D56"/>
</svg>
