<svg width="24" height="24" viewBox="0 0 24 24" fill="none" xmlns="http://www.w3.org/2000/svg">
<path d="M23.9111 11.716C23.7221 11.441 19.18 4.99988 11.9999 4.99988C5.83883 4.99988 0.348744 11.404 0.11774 11.677C-0.0392467 11.863 -0.0392467 12.136 0.11774 12.323C0.348744 12.596 5.83883 19.0001 11.9999 19.0001C18.1611 19.0001 23.6511 12.596 23.8821 12.323C24.0271 12.151 24.0401 11.902 23.9111 11.716ZM11.9999 18.0001C7.06088 18.0001 2.36478 13.29 1.17179 12C2.36281 10.709 7.05389 5.99992 11.9999 5.99992C17.779 5.99992 21.8581 10.703 22.8541 11.973C21.7041 13.222 16.981 18.0001 11.9999 18.0001Z" fill="#3F3D56"/>
<path d="M12 7.99988C9.79403 7.99988 8 9.79391 8 11.9999C8 14.2059 9.79403 16 12 16C14.2061 16 16.0001 14.2059 16.0001 11.9999C16.0001 9.79391 14.2061 7.99988 12 7.99988ZM12 15C10.346 15 9 13.654 9 12C9 10.346 10.346 8.99992 12 8.99992C13.6541 8.99992 15.0001 10.346 15.0001 12C15.0001 13.654 13.6541 15 12 15Z" fill="#3F3D56"/>
</svg>
