<svg width="32" height="32" viewBox="0 0 32 32" fill="none" xmlns="http://www.w3.org/2000/svg">
<path d="M25.8995 6.10047C23.2552 3.45627 19.7395 2 16 2C12.2604 2 8.74466 3.45627 6.10047 6.10047C3.45622 8.74472 2 12.2605 2 16C2 19.7395 3.45622 23.2552 6.10047 25.8995C8.74472 28.5437 12.2604 30 16 30C19.7395 30 23.2552 28.5437 25.8995 25.8995C28.5437 23.2552 30 19.7395 30 16C30 12.2605 28.5437 8.74477 25.8995 6.10047ZM16 28.3594C9.18501 28.3594 3.64062 22.815 3.64062 16C3.64062 9.18501 9.18501 3.64062 16 3.64062C22.815 3.64062 28.3594 9.18501 28.3594 16C28.3594 22.815 22.815 28.3594 16 28.3594Z" fill="#45C595"/>
<path d="M22.6897 11.5078C22.3694 11.1875 21.85 11.1875 21.5297 11.5078L14.2858 18.7517L10.4726 14.9385C10.1523 14.6182 9.63289 14.6182 9.31254 14.9385C8.99218 15.2588 8.99218 15.7782 9.31254 16.0986L13.7057 20.4918C13.8659 20.6519 14.0759 20.732 14.2858 20.732C14.4957 20.732 14.7057 20.6519 14.8658 20.4918L22.6897 12.6678C23.0101 12.3475 23.0101 11.8281 22.6897 11.5078Z" fill="#45C595"/>
</svg>
