<svg width="32" height="32" viewBox="0 0 32 32" fill="none" xmlns="http://www.w3.org/2000/svg">
<path d="M28.9026 30.3614L27.6097 22.0737C27.4704 21.1808 26.8918 20.4635 26.0997 20.2019L22.6124 19.0498C22.5402 18.1164 22.1907 17.2359 21.609 16.5389C21.1437 15.9814 20.5585 15.5754 19.9134 15.3514C20.0238 15.2173 20.1262 15.0836 20.2201 14.9529C21.0494 13.7981 21.4934 12.5258 21.6064 11.6576H21.8754C22.5751 11.6576 23.1444 11.0344 23.1444 10.2682V9.55594C23.1444 9.04463 22.8817 8.58131 22.4866 8.34087V6.62813C22.4866 6.36931 22.295 6.1595 22.0586 6.1595C21.8223 6.1595 21.6307 6.36925 21.6307 6.62813V8.55087C21.464 8.58256 21.2651 8.63731 21.0617 8.73112C21.0409 8.73944 21.0206 8.74906 21.0014 8.76062C20.9555 8.78356 20.9095 8.80775 20.8636 8.835V5.05863C20.8636 4.01531 20.0884 3.16656 19.1356 3.16656H17.9542C17.5468 3.16656 17.1487 3.322 16.8333 3.60437L16.7174 3.70813C16.5044 3.89875 16.2357 4.00375 15.9606 4.00375C15.6855 4.00375 15.4167 3.89875 15.2038 3.70813L15.0879 3.60437C14.7725 3.32206 14.3745 3.16656 13.967 3.16656H12.7856C11.8327 3.16656 11.0575 4.01531 11.0575 5.05863V8.835C11.0117 8.80775 10.9657 8.78356 10.9197 8.76062C10.9005 8.74906 10.8803 8.73944 10.8595 8.73112C10.656 8.63731 10.4571 8.58256 10.2905 8.55087V3.68906C10.2905 2.17169 11.418 0.937187 12.8038 0.937187H19.1172C20.5031 0.937187 21.6306 2.17169 21.6306 3.68906V4.42569C21.6306 4.6845 21.8222 4.89431 22.0585 4.89431C22.2948 4.89431 22.4865 4.68456 22.4865 4.42569V3.68906C22.4865 1.65494 20.975 0 19.1172 0H12.8038C10.946 0 9.43453 1.65494 9.43453 3.68906V8.34094C9.03946 8.58138 8.77676 9.04462 8.77676 9.556V10.2683C8.77676 11.0344 9.34605 11.6577 10.0458 11.6577H10.3148C10.4278 12.5259 10.8718 13.7981 11.7011 14.9529C11.7949 15.0836 11.8972 15.2171 12.0075 15.3511C10.5245 15.8669 9.44297 17.3267 9.30877 19.0498L5.82137 20.2019C5.02923 20.4635 4.45064 21.1808 4.31136 22.0737L3.78631 25.4393C3.74652 25.6944 3.90316 25.9365 4.13611 25.9801C4.36901 26.0238 4.59021 25.8522 4.63005 25.5971L5.1551 22.2315C5.23935 21.6912 5.58938 21.2574 6.06859 21.0991L9.29405 20.0336V20.9605C8.55471 21.1095 7.9256 21.6656 7.66651 22.436C7.59772 22.6405 7.55497 22.8546 7.53944 23.0724L7.22771 27.4533C7.20419 27.7833 7.30848 28.1119 7.51369 28.3547C7.71891 28.5976 8.00997 28.737 8.31222 28.737H8.84583C9.08221 28.737 9.27384 28.5273 9.27384 28.2684C9.27384 28.0095 9.08221 27.7998 8.84583 27.7998H8.31222C8.24778 27.7998 8.18579 27.7702 8.142 27.7183C8.09828 27.6666 8.07607 27.5966 8.0811 27.5263L8.39283 23.1453C8.40224 23.0133 8.4281 22.8836 8.46977 22.7598C8.65004 22.2239 9.13684 21.8609 9.68124 21.8568L9.75173 21.8562C9.75505 21.8561 9.7583 21.8561 9.76155 21.8561C10.2907 21.8561 10.759 22.1846 10.9566 22.6953C11.012 22.8385 11.0457 22.9899 11.0568 23.1453L11.3686 27.5263C11.3736 27.5966 11.3514 27.6666 11.3076 27.7184C11.2639 27.7701 11.2019 27.7998 11.1374 27.7998H10.6038C10.3674 27.7998 10.1758 28.0096 10.1758 28.2684C10.1758 28.5272 10.3674 28.737 10.6038 28.737H11.1374C11.4397 28.737 11.7308 28.5977 11.9359 28.3547C12.1412 28.1118 12.2455 27.7832 12.222 27.4534L11.9101 23.0724C11.8919 22.816 11.8362 22.5661 11.7447 22.3296C11.4628 21.6011 10.8599 21.0945 10.1499 20.9574V19.7508L11.6212 19.2647C11.7551 19.5734 12.0203 20.2405 12.5458 21.6784C13.0753 23.1293 13.7335 24.989 14.3648 26.7969C14.3693 26.8121 14.3745 26.8269 14.3803 26.8414C14.8016 28.0483 15.2103 29.2304 15.5598 30.2502C15.6225 30.4331 15.7821 30.5542 15.9605 30.5542C16.1389 30.5542 16.2985 30.4331 16.3612 30.2502C16.7107 29.2304 17.1193 28.0483 17.5407 26.8414C17.5465 26.8269 17.5517 26.812 17.5562 26.7969C18.187 24.9901 18.8449 23.1316 19.3742 21.6811C19.9003 20.2413 20.1658 19.5737 20.2998 19.2647L21.771 19.7508V22.5186C20.7516 22.7354 19.9795 23.7198 19.9795 24.8984C19.9795 26.2354 20.9729 27.3231 22.194 27.3231C23.4151 27.3231 24.4085 26.2354 24.4085 24.8984C24.4085 23.7237 23.6414 22.7417 22.627 22.5206V20.0336L25.8525 21.0992C26.3317 21.2574 26.6817 21.6913 26.766 22.2316L28.0589 30.5193C28.0803 30.6567 28.047 30.7911 27.9648 30.8976C27.8827 31.0041 27.7674 31.0629 27.64 31.0629H4.28099C4.15364 31.0629 4.03833 31.0042 3.95619 30.8976C3.8741 30.7911 3.84065 30.6568 3.86212 30.5193L4.28881 27.7841C4.3286 27.529 4.17196 27.2869 3.93901 27.2434C3.70611 27.1996 3.48491 27.3713 3.44507 27.6264L3.01838 30.3615C2.95473 30.7698 3.05811 31.1854 3.30196 31.502C3.54594 31.8185 3.90276 32 4.28099 32H27.64C28.0182 32 28.3751 31.8185 28.619 31.5019C28.8629 31.1854 28.9663 30.7697 28.9026 30.3614ZM21.6357 9.50556C21.8638 9.44331 22.0468 9.44444 22.0489 9.4445C22.1226 9.44556 22.1943 9.42669 22.258 9.39013C22.2771 9.44206 22.2883 9.49788 22.2883 9.556V10.2683C22.2883 10.5176 22.1031 10.7205 21.8753 10.7205H21.6357V9.50556ZM10.2853 10.7205H10.0457C9.81795 10.7205 9.63266 10.5176 9.63266 10.2683V9.556C9.63266 9.49788 9.64396 9.44206 9.66297 9.39019C9.72662 9.42675 9.79831 9.44563 9.87212 9.4445C9.87538 9.44512 10.0579 9.444 10.2853 9.50581V10.7205ZM11.1412 11.2459V10.0148C11.2709 10.0574 11.4128 10.0516 11.5437 9.99175C11.7684 9.88912 11.9135 9.65081 11.9135 9.3845V5.05863C11.9135 4.53213 12.3047 4.10375 12.7856 4.10375H13.9669C14.1774 4.10375 14.3831 4.18406 14.5461 4.32994L14.6619 4.43369C15.0273 4.76081 15.4885 4.94088 15.9605 4.94088C16.4325 4.94088 16.8937 4.76075 17.2591 4.43369L17.375 4.32994C17.5379 4.18406 17.7436 4.10375 17.9541 4.10375H19.1354C19.6163 4.10375 20.0075 4.53213 20.0075 5.05863V9.38456C20.0075 9.65081 20.1527 9.88919 20.3773 9.99181C20.4523 10.0261 20.5308 10.0427 20.6087 10.0427C20.6667 10.0427 20.7243 10.0334 20.7798 10.0153V11.2459C20.7798 11.9301 20.3478 13.2587 19.5471 14.3736C19.2819 14.7429 18.941 15.1397 18.5213 15.4864C18.508 15.4962 18.4953 15.5068 18.4831 15.518C17.8329 16.0444 16.9968 16.4476 15.9605 16.4476C14.9242 16.4476 14.0881 16.0444 13.4378 15.5179C13.4257 15.5068 13.413 15.4962 13.3998 15.4865C12.98 15.1397 12.6391 14.7429 12.3739 14.3736C11.5733 13.2588 11.1412 11.9301 11.1412 11.2459ZM18.7644 18.8169L15.9605 21.1115L13.1566 18.8169C13.4347 18.4299 13.5904 17.9333 13.5904 17.49V16.7346C14.2498 17.1229 15.0366 17.3849 15.9605 17.3849C16.8844 17.3849 17.6713 17.1229 18.3306 16.7346V17.49C18.3306 17.9333 18.4864 18.4299 18.7644 18.8169ZM12.4423 18.2938C12.2138 18.1985 11.9604 18.1829 11.7207 18.2541C11.7102 18.2568 11.6999 18.2598 11.6899 18.2631L10.2113 18.7516C10.4614 17.4052 11.4599 16.3336 12.7345 16.126V17.49C12.7345 17.784 12.6146 18.0879 12.4423 18.2938ZM13.6039 22.0556C13.6031 22.0534 13.6023 22.0512 13.6016 22.0491C13.5799 21.989 13.5585 21.9298 13.5372 21.8712C13.5334 21.8606 13.5296 21.85 13.5258 21.8395C13.505 21.7822 13.4844 21.7253 13.464 21.6694C13.4626 21.6654 13.4612 21.6616 13.4598 21.6576C13.3963 21.483 13.3352 21.3156 13.2764 21.1551C13.2721 21.1435 13.2679 21.1317 13.2636 21.1201C13.2467 21.0741 13.2301 21.0288 13.2136 20.9841C13.2075 20.9676 13.2015 20.9514 13.1955 20.9351C13.1795 20.8918 13.1637 20.8486 13.148 20.8064C13.1434 20.7938 13.1388 20.7816 13.1342 20.769C13.1058 20.6924 13.0781 20.6177 13.051 20.5449C13.0437 20.5252 13.0362 20.5051 13.029 20.4857C13.0183 20.4573 13.008 20.4297 12.9976 20.4019C12.9864 20.3719 12.9752 20.3421 12.9643 20.3129C12.9602 20.3019 12.9559 20.2904 12.9518 20.2795C12.9485 20.2707 12.9455 20.2627 12.9422 20.254C12.8928 20.1225 12.8458 19.9986 12.8012 19.882C12.8009 19.8811 12.8005 19.8801 12.8001 19.8792C12.7764 19.8171 12.7531 19.7565 12.7308 19.6987C12.7192 19.6688 12.7078 19.6394 12.6966 19.6105L15.1081 21.5839L14.1005 22.0526C14.0987 22.0534 14.0969 22.0542 14.0951 22.0551L13.6744 22.2507C13.6505 22.1847 13.6272 22.1199 13.6039 22.0556ZM14.6251 24.9248C14.5406 24.6846 14.4554 24.4431 14.3701 24.2017C14.2366 23.8243 14.1091 23.4654 13.9872 23.1236L14.1469 23.0492L14.7994 23.8798L14.6251 24.9248ZM15.9688 28.7334C15.9565 28.7056 15.9419 28.6793 15.925 28.6548C15.7316 28.0951 15.4861 27.3869 15.2145 26.6077L15.6141 24.2124H16.3069L16.7065 26.6077C16.4218 27.424 16.1662 28.1621 15.9688 28.7334ZM16.4675 23.2752H15.4536L14.9738 22.6646L15.9605 22.2057L16.9472 22.6646L16.4675 23.2752ZM17.5509 24.2017C17.4656 24.4431 17.3804 24.6846 17.2959 24.9248L17.1216 23.8797L17.7741 23.0492L17.9338 23.1235C17.8119 23.4654 17.6844 23.8243 17.5509 24.2017ZM19.1902 19.6987C19.1691 19.7535 19.147 19.8109 19.1246 19.8696C19.1217 19.8772 19.1187 19.8849 19.1158 19.8926C19.0936 19.9507 19.071 20.0101 19.0476 20.0719C19.046 20.0759 19.0444 20.0802 19.0429 20.0844C19.0227 20.1377 19.002 20.1927 18.9809 20.2488C18.977 20.2593 18.9733 20.2689 18.9693 20.2795C18.9646 20.2921 18.9596 20.3054 18.9549 20.3181C18.9455 20.3431 18.936 20.3686 18.9264 20.3941C18.9146 20.4255 18.9029 20.4568 18.8909 20.489C18.8871 20.4993 18.8831 20.5099 18.8793 20.5203C18.8495 20.6002 18.8189 20.6826 18.7876 20.7672C18.7827 20.7804 18.7778 20.7934 18.7729 20.8069C18.7574 20.8487 18.7417 20.8914 18.7259 20.9343C18.7197 20.9511 18.7135 20.9679 18.7073 20.9849C18.6909 21.0292 18.6744 21.0741 18.6578 21.1196C18.6531 21.1322 18.6484 21.1453 18.6437 21.158C18.5856 21.3163 18.5254 21.4813 18.4629 21.6533C18.4608 21.659 18.4588 21.6646 18.4567 21.6703C18.4365 21.7259 18.4161 21.7824 18.3954 21.8393C18.3916 21.8499 18.3877 21.8606 18.3838 21.8713C18.3625 21.9301 18.341 21.9896 18.3192 22.0501C18.3188 22.0512 18.3184 22.0523 18.318 22.0534C18.2944 22.1185 18.2708 22.184 18.2467 22.2509L17.8256 22.055C17.8241 22.0543 17.8226 22.0536 17.8212 22.0529L16.813 21.584L19.2245 19.6106C19.2132 19.6394 19.2018 19.6687 19.1902 19.6987ZM20.2311 18.2631C20.231 18.2631 20.2309 18.2631 20.2309 18.2631C20.2305 18.2629 20.2301 18.2629 20.2298 18.2627C19.9815 18.1811 19.7166 18.1946 19.4787 18.2938C19.3064 18.0879 19.1866 17.784 19.1866 17.49V16.1253C20.4692 16.3323 21.4646 17.3939 21.7115 18.7521L20.2311 18.2631ZM23.5526 24.8984C23.5526 25.7187 22.9431 26.3859 22.194 26.3859C21.4449 26.3859 20.8354 25.7187 20.8354 24.8984C20.8354 24.0782 21.4449 23.4109 22.194 23.4109C22.9431 23.4109 23.5526 24.0782 23.5526 24.8984Z" fill="#FF8381"/>
</svg>
