<svg width="24" height="24" viewBox="0 0 24 24" fill="none" xmlns="http://www.w3.org/2000/svg">
<path fill-rule="evenodd" clip-rule="evenodd" d="M3 4H21C21.5523 4 22 4.44773 22 5V18.3333C22 18.8856 21.5523 19.3333 21 19.3333H3C2.4477 19.3333 2 18.8856 2 18.3333V5C2 4.4477 2.44773 4 3 4ZM21 18.6667C21.1841 18.6667 21.3333 18.5175 21.3333 18.3334V5C21.3333 4.8159 21.1841 4.66668 21 4.66668H3C2.8159 4.66668 2.66668 4.8159 2.66668 5V18.3334C2.66668 18.5175 2.8159 18.6667 3 18.6667H21ZM20.119 5.41191C20.1867 5.35503 20.2742 5.32741 20.3623 5.33511C20.4504 5.3428 20.5318 5.38515 20.5886 5.45292C20.6455 5.52062 20.6731 5.60816 20.6654 5.69624C20.6577 5.78433 20.6153 5.86573 20.5476 5.92257L12.8576 12.3822C12.362 12.7995 11.6379 12.7995 11.1423 12.3822L3.45229 5.92253C3.36108 5.84597 3.31764 5.72655 3.33834 5.60925C3.35905 5.49194 3.44077 5.3946 3.55268 5.3539C3.6646 5.31319 3.78975 5.3353 3.88096 5.41187L11.5709 11.8719C11.8189 12.0804 12.1809 12.0804 12.4289 11.8719L20.119 5.41191ZM8.41114 12.3356C8.29313 12.3093 8.17017 12.3489 8.0897 12.4392L3.42302 17.4392C3.33856 17.5256 3.30755 17.6511 3.342 17.767C3.37645 17.8829 3.47095 17.971 3.58892 17.9973C3.70692 18.0237 3.82989 17.984 3.91036 17.8938L8.57704 12.8938C8.66149 12.8073 8.69251 12.6819 8.65806 12.566C8.6236 12.4501 8.52915 12.362 8.41114 12.3356ZM15.5889 12.3356C15.7069 12.3093 15.8299 12.3489 15.9104 12.4392L20.577 17.4391C20.6976 17.5744 20.6881 17.7811 20.5556 17.9047C20.4231 18.0283 20.2163 18.0234 20.0897 17.8938L15.423 12.8938C15.3386 12.8073 15.3075 12.6819 15.342 12.566C15.3764 12.4501 15.4709 12.362 15.5889 12.3356Z" fill="#3F3D56" fill-opacity="0.8"/>
</svg>
