<svg width="264" height="240" viewBox="0 0 264 240" fill="none" xmlns="http://www.w3.org/2000/svg">
<g clip-path="url(#clip0)">
<path d="M258.446 240C248.461 238.082 238.858 236.433 229.637 235.055L233.316 227.086C232.088 226.603 226.666 231.163 226.666 231.163L231.545 208.026C225.356 208.861 222.116 232.487 222.116 232.487L215.236 224.492L218.547 233.476C190.321 229.7 165.937 228.285 145.423 228.215L148.572 221.395C147.344 220.912 141.922 225.472 141.922 225.472L146.801 202.335C140.612 203.17 137.372 226.796 137.372 226.796L130.493 218.8L133.999 228.317C116.799 228.688 102.769 229.997 91.938 231.495C95.1384 220.868 105.906 210.769 105.906 210.769C97.7028 213.507 93.387 218.106 91.1243 222.394C91.0037 209.269 92.2533 184.937 100.939 158.005C100.939 158.005 83.8392 199.526 85.8884 227.41L86.127 232.362C71.762 234.664 64.5349 237.068 64.5349 237.068L258.446 240Z" fill="#3F3D56"/>
<path d="M248.682 238.481C248.611 238.364 246.92 235.541 246.334 229.681C245.797 224.304 246.143 215.242 250.843 202.6C259.747 178.651 248.791 159.328 248.679 159.136L249.219 158.822C249.248 158.871 252.075 163.798 253.745 171.643C255.951 182.043 255.148 192.858 251.428 202.818C242.54 226.726 249.148 238.044 249.216 238.155L248.682 238.481Z" fill="#3F3D56"/>
<path d="M245.201 157.729C247.443 157.729 249.261 155.911 249.261 153.668C249.261 151.425 247.443 149.607 245.201 149.607C242.958 149.607 241.14 151.425 241.14 153.668C241.14 155.911 242.958 157.729 245.201 157.729Z" fill="#F9DC25"/>
<path d="M258.007 172.723C260.25 172.723 262.068 170.905 262.068 168.662C262.068 166.42 260.25 164.602 258.007 164.602C255.765 164.602 253.947 166.42 253.947 168.662C253.947 170.905 255.765 172.723 258.007 172.723Z" fill="#3F3D56"/>
<path d="M249.261 182.718C251.504 182.718 253.322 180.9 253.322 178.657C253.322 176.415 251.504 174.597 249.261 174.597C247.019 174.597 245.201 176.415 245.201 178.657C245.201 180.9 247.019 182.718 249.261 182.718Z" fill="#F9DC25"/>
<path d="M259.881 191.152C262.124 191.152 263.942 189.334 263.942 187.091C263.942 184.848 262.124 183.03 259.881 183.03C257.639 183.03 255.821 184.848 255.821 187.091C255.821 189.334 257.639 191.152 259.881 191.152Z" fill="#F9DC25"/>
<path d="M246.138 204.271C248.38 204.271 250.198 202.453 250.198 200.21C250.198 197.967 248.38 196.149 246.138 196.149C243.895 196.149 242.077 197.967 242.077 200.21C242.077 202.453 243.895 204.271 246.138 204.271Z" fill="#3F3D56"/>
<path d="M251.135 238.63C251.135 238.63 247.075 228.634 259.257 221.138L251.135 238.63Z" fill="#3F3D56"/>
<path d="M246.141 238.449C246.141 238.449 244.293 227.82 229.99 227.911L246.141 238.449Z" fill="#3F3D56"/>
<path d="M165.342 127.063C166.05 127.037 166.77 126.998 167.482 126.948L167.532 127.665C166.812 127.715 166.084 127.754 165.369 127.78L165.342 127.063Z" fill="#E6E6E6"/>
<path d="M158.596 0.137927C159.559 0.0704386 160.531 0.0240734 161.487 0L161.505 0.717999C160.074 0.75392 158.613 0.840509 157.18 0.973951L157.114 0.258652C157.606 0.212931 158.1 0.17269 158.596 0.137927ZM152.768 0.811705L152.883 1.52079C151.461 1.75124 150.032 2.0335 148.634 2.35922L148.471 1.65982C149.884 1.33054 151.33 1.04503 152.768 0.811705ZM165.867 0.0368999C167.322 0.0990747 168.791 0.212311 170.234 0.373482L170.154 1.0871C168.728 0.927924 167.275 0.815972 165.836 0.754785L165.867 0.0368999ZM144.242 2.80058L144.453 3.4875C143.079 3.90935 141.701 4.38484 140.359 4.90073L140.101 4.23047C141.459 3.70856 142.852 3.2274 144.242 2.80058ZM174.568 1.00979C175.998 1.27026 177.438 1.58453 178.848 1.94343L178.671 2.63923C177.277 2.28451 175.853 1.97403 174.439 1.7163L174.568 1.00979ZM136.069 5.94276L136.373 6.59363C135.07 7.20099 133.772 7.86108 132.516 8.55515L132.169 7.9263C133.44 7.22456 134.751 6.55715 136.069 5.94276ZM183.06 3.17186C184.444 3.62853 185.829 4.13861 187.175 4.68829L186.904 5.35346C185.573 4.81008 184.204 4.30558 182.835 3.85416L183.06 3.17186ZM128.414 10.1739L128.803 10.7773C127.596 11.558 126.4 12.3898 125.251 13.2501L124.82 12.6749C125.983 11.8049 127.192 10.9637 128.414 10.1739ZM191.176 6.48349C192.484 7.1255 193.784 7.82003 195.042 8.54852L194.682 9.16997C193.439 8.44999 192.152 7.76285 190.859 7.12791L191.176 6.48349ZM121.406 15.4162L121.874 15.9606C120.784 16.8986 119.713 17.8859 118.69 18.8955L118.185 18.3846C119.22 17.3633 120.303 16.3645 121.406 15.4162ZM198.758 10.873C199.964 11.6857 201.157 12.5509 202.306 13.4448L201.865 14.0115C200.729 13.1279 199.549 12.2723 198.357 11.4686L198.758 10.873ZM115.174 21.5661L115.712 22.0417C114.76 23.1195 113.832 24.2437 112.955 25.3837L112.386 24.9455C113.273 23.7928 114.211 22.6559 115.174 21.5661ZM205.67 16.2521C206.755 17.2219 207.82 18.2413 208.835 19.2814L208.321 19.7828C207.317 18.7542 206.264 17.7467 205.192 16.7876L205.67 16.2521ZM109.834 28.5086L110.431 28.9068C109.635 30.1027 108.869 31.3432 108.154 32.5935L107.531 32.2371C108.253 30.9726 109.028 29.7181 109.834 28.5086ZM211.785 22.5184C212.727 23.6261 213.643 24.7804 214.507 25.9485L213.929 26.3757C213.075 25.2206 212.17 24.0793 211.238 22.9835L211.785 22.5184ZM105.488 36.1161L106.134 36.4287C105.507 37.7248 104.917 39.0588 104.381 40.3942L103.715 40.1267C104.257 38.776 104.853 37.4268 105.488 36.1161ZM216.987 29.5559C217.769 30.7811 218.518 32.049 219.213 33.3242L218.583 33.6679C217.895 32.4073 217.155 31.1535 216.382 29.9421L216.987 29.5559ZM102.222 44.2505L102.905 44.4712C102.463 45.8416 102.062 47.2449 101.714 48.6424L101.017 48.469C101.369 47.0555 101.774 45.636 102.222 44.2505V44.2505ZM221.175 37.2347C221.782 38.5569 222.35 39.9169 222.864 41.2769L222.192 41.5307C221.684 40.1861 221.122 38.8418 220.522 37.5343L221.175 37.2347ZM100.108 52.7551L100.816 52.8799C100.566 54.2966 100.363 55.7395 100.211 57.1686L99.4972 57.0928C99.6504 55.6474 99.8561 54.1881 100.108 52.7551ZM224.27 45.4257C224.689 46.818 225.065 48.2432 225.387 49.6614L224.686 49.8205C224.368 48.4182 223.996 47.0093 223.582 45.6328L224.27 45.4257ZM99.1853 61.4616L99.9029 61.4883C99.8499 62.9232 99.8458 64.3803 99.8904 65.8193L99.1727 65.8415C99.1273 64.3865 99.1317 62.9129 99.1853 61.4616ZM226.21 53.9636C226.434 55.3981 226.612 56.8611 226.739 58.3118L226.024 58.3743C225.898 56.9396 225.722 55.493 225.501 54.0745L226.21 53.9636ZM100.172 70.1424C100.313 71.5753 100.505 73.0199 100.742 74.4359L100.034 74.5548C99.7937 73.1226 99.5996 71.6618 99.4565 70.213L100.172 70.1424ZM101.604 78.6805C101.94 80.0811 102.327 81.4858 102.756 82.8558L102.071 83.0704C101.637 81.685 101.245 80.2643 100.906 78.8476L101.604 78.6805ZM104.193 86.9414C104.717 88.2793 105.293 89.6159 105.907 90.9138L105.258 91.2209C104.637 89.908 104.054 88.5562 103.525 87.203L104.193 86.9414ZM107.891 94.7597C108.594 96.0147 109.349 97.26 110.135 98.4612L109.534 98.8545C108.739 97.6395 107.976 96.38 107.264 95.1109L107.891 94.7597ZM112.628 102.001C113.497 103.149 114.416 104.28 115.358 105.363L114.817 105.834C113.864 104.739 112.935 103.595 112.056 102.435L112.628 102.001ZM118.312 108.531C119.328 109.548 120.392 110.544 121.475 111.491L121.002 112.032C119.907 111.074 118.831 110.067 117.803 109.038L118.312 108.531ZM124.832 114.229C125.979 115.1 127.169 115.943 128.369 116.732L127.974 117.332C126.76 116.534 125.557 115.682 124.397 114.801L124.832 114.229ZM132.068 118.989C133.324 119.696 134.618 120.369 135.914 120.987L135.606 121.636C134.294 121.01 132.985 120.33 131.715 119.614L132.068 118.989ZM139.89 122.717C141.229 123.246 142.604 123.734 143.975 124.169L143.758 124.854C142.371 124.414 140.981 123.92 139.626 123.385L139.89 122.717ZM148.151 125.336C149.549 125.675 150.976 125.969 152.393 126.211L152.273 126.919C150.839 126.674 149.395 126.377 147.982 126.034L148.151 125.336ZM156.686 126.791C158.115 126.934 159.569 127.029 161.008 127.074L160.985 127.792C159.53 127.747 158.06 127.65 156.614 127.505L156.686 126.791Z" fill="#E6E6E6"/>
<path d="M226.258 62.806L226.976 62.793C226.989 63.518 226.99 64.2468 226.979 64.9595L226.261 64.9483C226.272 64.2437 226.271 63.523 226.258 62.806Z" fill="#E6E6E6"/>
<path d="M167.58 203.802L164.769 213.797L171.953 215.047L176.013 206.613L167.58 203.802Z" fill="#FFB8B8"/>
<path d="M213.496 206.301L215.37 217.546L222.555 218.171L220.993 205.364L213.496 206.301Z" fill="#FFB8B8"/>
<path d="M194.443 81.0454C199.445 81.0454 203.501 76.9899 203.501 71.9871C203.501 66.9843 199.445 62.9287 194.443 62.9287C189.44 62.9287 185.384 66.9843 185.384 71.9871C185.384 76.9899 189.44 81.0454 194.443 81.0454Z" fill="#FFB8B8"/>
<path d="M188.82 77.6096C188.82 77.6096 190.382 87.2927 190.069 88.2298C189.757 89.1669 199.909 86.8242 199.909 86.8242C199.909 86.8242 200.377 76.6726 200.69 76.0479L188.82 77.6096Z" fill="#FFB8B8"/>
<path d="M202.876 106.347L204.75 127.275L199.753 126.65V107.908L202.876 106.347Z" fill="#FFB8B8"/>
<path d="M202.515 86.6572C202.363 86.05 201.997 85.5182 201.484 85.1599C200.97 84.8017 200.345 84.6413 199.722 84.7082C195.954 85.1112 188.657 85.9751 188.195 86.6681C187.791 87.274 184.907 92.7107 182.918 96.4785C181.985 98.2051 180.894 99.8418 179.66 101.368C178.507 102.823 177.263 105.605 178.825 110.095C181.323 117.279 181.636 127.275 181.636 127.275L201.314 122.902C201.314 122.902 199.753 114.156 203.501 108.533C206.457 104.099 203.779 91.7009 202.515 86.6572Z" fill="#3F3D56"/>
<path d="M180.387 123.526L182.261 138.831L166.018 205.364C166.018 205.364 178.512 210.049 178.512 209.737C178.512 209.424 197.254 162.883 197.254 162.883L212.559 208.487L225.991 207.238L212.559 149.452C212.559 149.452 212.403 133.053 202.876 124.463L201.011 119.651C201.011 119.651 189.133 113.218 180.387 123.526Z" fill="#2F2E41"/>
<path d="M223.492 215.047L212.247 213.173L211.622 220.357L206 223.481C206 223.481 197.254 223.793 200.377 230.352C203.501 236.912 211.622 235.35 211.622 235.35C211.622 235.35 220.056 240.036 225.366 238.161C225.366 238.161 226.459 234.882 225.991 233.788C225.483 232.605 223.804 223.793 223.804 223.793L223.492 215.047Z" fill="#2F2E41"/>
<path d="M175.076 211.299L163.831 209.425L163.207 216.609L157.584 219.733C157.584 219.733 148.838 220.045 151.962 226.604C155.085 233.164 163.207 231.602 163.207 231.602C163.207 231.602 171.64 236.288 176.95 234.413C176.95 234.413 178.044 232.071 177.575 230.04C177.286 228.785 175.389 220.045 175.389 220.045L175.076 211.299Z" fill="#2F2E41"/>
<path d="M194.443 86.0436C194.443 86.0436 186.415 85.0529 185.899 90.8583C185.384 96.6638 186.634 116.342 186.634 116.342L179.137 142.893C179.137 142.893 168.829 157.261 175.389 156.012C181.948 154.762 183.822 143.83 183.822 143.83L193.193 121.028L196.793 102.002C197.507 98.2987 197.524 94.4942 196.841 90.7848C196.381 88.3403 195.637 86.1764 194.443 86.0436Z" fill="#FFB8B8"/>
<path d="M199.663 58.6475C193.699 58.6475 188.864 65.3488 188.864 73.6152V84.1179H191.45L192.948 80.2266L192.573 84.1179H209.198L210.559 80.5803L210.219 84.1179H212.091V75.8714C212.091 66.3589 206.527 58.6475 199.663 58.6475Z" fill="#2F2E41"/>
<path d="M200.799 60.975C200.15 60.1035 199.309 59.3932 198.341 58.8993C197.373 58.4054 196.304 58.1411 195.218 58.127H194.953C189.847 58.127 185.709 62.7467 185.709 68.4456V68.4456H187.419L187.696 66.3427L188.101 68.4456H198.247L199.097 66.6665L198.884 68.4456H200.88C201.812 73.0712 200.473 77.6968 196.865 82.3224H200.266L201.966 78.7642L201.541 82.3224H208.022L209.297 74.1386C209.297 68.0097 205.736 62.8125 200.799 60.975Z" fill="#2F2E41"/>
<path d="M135.875 44.6562H0V54.964H135.875V44.6562Z" fill="#3F3D56"/>
<path d="M135.875 70.8936H0V81.2014H135.875V70.8936Z" fill="#3F3D56"/>
<path d="M135.875 97.1318H0V107.44H135.875V97.1318Z" fill="#3F3D56"/>
<path d="M67.7817 60.1175C73.4745 60.1175 78.0895 55.5026 78.0895 49.8097C78.0895 44.1169 73.4745 39.502 67.7817 39.502C62.0888 39.502 57.4739 44.1169 57.4739 49.8097C57.4739 55.5026 62.0888 60.1175 67.7817 60.1175Z" fill="#F9DC25"/>
<path d="M15.9301 86.3558C21.623 86.3558 26.2379 81.7409 26.2379 76.048C26.2379 70.3552 21.623 65.7402 15.9301 65.7402C10.2373 65.7402 5.62231 70.3552 5.62231 76.048C5.62231 81.7409 10.2373 86.3558 15.9301 86.3558Z" fill="#F9DC25"/>
<path d="M106.202 112.593C111.894 112.593 116.509 107.978 116.509 102.285C116.509 96.5925 111.894 91.9775 106.202 91.9775C100.509 91.9775 95.8938 96.5925 95.8938 102.285C95.8938 107.978 100.509 112.593 106.202 112.593Z" fill="#F9DC25"/>
</g>
<defs>
<clipPath id="clip0">
<rect width="263.942" height="240" fill="white"/>
</clipPath>
</defs>
</svg>
