<svg width="418" height="450" viewBox="0 0 418 450" fill="none" xmlns="http://www.w3.org/2000/svg">
<g clip-path="url(#clip0)">
<path d="M225.474 450C331.803 450 418 363.835 418 257.545C418 151.254 331.803 65.0893 225.474 65.0893C119.145 65.0893 32.9487 151.254 32.9487 257.545C32.9487 363.835 119.145 450 225.474 450Z" fill="#F2F2F2"/>
<path d="M113.048 223.512C114.422 221.116 115.131 218.397 115.104 215.635C115.104 208.517 110.694 202.746 105.255 202.746C99.8149 202.746 95.405 208.517 95.405 215.635C95.3779 218.397 96.0875 221.116 97.4608 223.512C96.1129 225.919 95.405 228.631 95.405 231.389C95.405 234.147 96.1129 236.859 97.4608 239.265C96.1129 241.672 95.405 244.384 95.405 247.142C95.405 249.9 96.1129 252.612 97.4608 255.019C96.1129 257.426 95.405 260.138 95.405 262.896C95.405 265.654 96.1129 268.366 97.4608 270.773C96.0875 273.169 95.3779 275.888 95.405 278.649C95.405 285.768 99.8148 291.539 105.255 291.539C110.694 291.539 115.104 285.768 115.104 278.649C115.131 275.888 114.422 273.169 113.048 270.773C114.396 268.366 115.104 265.654 115.104 262.896C115.104 260.138 114.396 257.426 113.048 255.019C114.396 252.612 115.104 249.9 115.104 247.142C115.104 244.384 114.396 241.672 113.048 239.265C114.396 236.859 115.104 234.147 115.104 231.389C115.104 228.631 114.396 225.919 113.048 223.512Z" fill="#3F3D56"/>
<path d="M105.255 212.771C110.694 212.771 115.104 207 115.104 199.882C115.104 192.763 110.694 186.992 105.255 186.992C99.8148 186.992 95.405 192.763 95.405 199.882C95.405 207 99.8148 212.771 105.255 212.771Z" fill="#3F3D56"/>
<path d="M105.255 197.017C110.694 197.017 115.104 191.247 115.104 184.128C115.104 177.01 110.694 171.239 105.255 171.239C99.8148 171.239 95.405 177.01 95.405 184.128C95.405 191.247 99.8148 197.017 105.255 197.017Z" fill="#3F3D56"/>
<path d="M142.126 76.3217C143.472 74.6092 144.698 72.8057 145.794 70.9242L119.914 66.6753L147.904 66.8834C150.59 61.0433 152.054 54.717 152.209 48.2916C152.364 41.8661 151.206 35.4766 148.805 29.514L111.253 48.9873L145.885 23.5394C142.64 17.9347 138.276 13.0578 133.064 9.21273C127.852 5.36762 121.903 2.63659 115.589 1.18977C109.275 -0.257045 102.73 -0.388654 96.3632 0.803145C89.996 1.99494 83.9424 4.48461 78.5797 8.11707C73.217 11.7495 68.66 16.4469 65.1925 21.9167C61.7251 27.3864 59.4215 33.5113 58.4253 39.9098C57.4291 46.3083 57.7616 52.8433 59.4021 59.1078C61.0426 65.3722 63.956 71.2318 67.9607 76.3217C65.8632 78.987 64.0592 81.8707 62.58 84.9226L96.1748 102.37L60.3534 90.3518C57.8382 97.7843 57.2166 105.726 58.5449 113.459C59.8732 121.193 63.1094 128.473 67.9607 134.641C62.4869 141.597 59.0818 149.953 58.1347 158.753C57.1877 167.553 58.7368 176.442 62.6052 184.403C66.4735 192.365 72.5048 199.077 80.0095 203.773C87.5143 208.47 96.1896 210.96 105.044 210.96C113.897 210.96 122.573 208.47 130.078 203.773C137.582 199.077 143.614 192.365 147.482 184.403C151.35 176.442 152.899 167.553 151.952 158.753C151.005 149.953 147.6 141.597 142.126 134.641C148.667 126.327 152.223 116.058 152.223 105.481C152.223 94.9047 148.667 84.6351 142.126 76.3217L142.126 76.3217Z" fill="#F9DC25"/>
<path opacity="0.1" d="M57.8641 105.481C57.8478 116.06 61.4055 126.335 67.9607 134.641C62.4869 141.597 59.0818 149.953 58.1347 158.753C57.1877 167.553 58.7369 176.442 62.6052 184.403C66.4735 192.364 72.5048 199.077 80.0096 203.773C87.5143 208.47 96.1896 210.96 105.044 210.96C113.898 210.96 122.573 208.47 130.078 203.773C137.582 199.077 143.614 192.364 147.482 184.403C151.35 176.442 152.899 167.553 151.952 158.753C151.005 149.953 147.6 141.597 142.126 134.641C148.45 126.616 57.8641 100.188 57.8641 105.481Z" fill="black"/>
<path d="M364.19 384.675C351.981 428.165 257.776 468.5 157.598 440.397C57.4195 412.294 -10.7969 326.395 1.41198 282.905C13.6209 239.416 101.632 254.805 201.81 282.908C301.989 311.011 376.399 341.186 364.19 384.675Z" fill="#3F3D56"/>
<path opacity="0.1" d="M364.19 384.675C351.981 428.165 257.776 468.5 157.598 440.397C57.4195 412.294 -10.7969 326.395 1.41198 282.905C13.6209 239.416 101.632 254.805 201.81 282.908C301.989 311.011 376.399 341.186 364.19 384.675Z" fill="black"/>
<path d="M364.19 384.675C376.399 341.186 305.086 283.149 204.908 255.046C104.729 226.943 13.621 239.416 1.41212 282.905C-10.7968 326.395 60.5166 384.432 160.695 412.535C260.874 440.638 351.982 428.165 364.19 384.675Z" fill="#3F3D56"/>
<path opacity="0.1" d="M152.18 352.482C182.682 352.482 207.409 345.321 207.409 336.487C207.409 327.654 182.682 320.492 152.18 320.492C121.679 320.492 96.9519 327.654 96.9519 336.487C96.9519 345.321 121.679 352.482 152.18 352.482Z" fill="black"/>
<path d="M220.187 244.442L150.334 314.269L120.975 284.92C119.093 283.039 116.54 281.982 113.878 281.982C111.216 281.982 108.664 283.038 106.781 284.92L105.727 283.343C101.807 287.261 102.862 295.19 106.781 299.108L144.875 337.188C146.311 338.623 148.258 339.429 150.288 339.43C152.318 339.43 154.265 338.625 155.702 337.19L234.373 258.63C238.295 254.714 239.718 247.532 235.798 243.614C231.879 239.697 224.105 240.525 220.187 244.442Z" fill="#57B894"/>
<path opacity="0.1" d="M220.187 244.442L150.334 314.269L120.975 284.92C119.093 283.039 116.54 281.982 113.878 281.982C111.216 281.982 108.664 283.038 106.781 284.92L105.727 283.343C101.807 287.261 102.862 295.19 106.781 299.108L144.875 337.188C146.311 338.623 148.258 339.429 150.288 339.43C152.318 339.43 154.265 338.625 155.702 337.19L234.373 258.63C238.295 254.714 239.718 247.532 235.798 243.614C231.879 239.697 224.105 240.525 220.187 244.442Z" fill="black"/>
<path d="M220.187 241.346L150.334 311.173L120.974 281.824C119.092 279.943 116.54 278.886 113.878 278.886C111.216 278.886 108.663 279.943 106.781 281.824C105.849 282.756 105.11 283.862 104.606 285.079C104.101 286.296 103.842 287.601 103.842 288.918C103.842 290.236 104.101 291.54 104.606 292.758C105.11 293.975 105.849 295.081 106.781 296.012L144.875 334.092C146.31 335.527 148.257 336.333 150.287 336.334C152.318 336.334 154.265 335.529 155.701 334.095L234.373 255.534C235.305 254.603 236.045 253.497 236.55 252.28C237.055 251.063 237.315 249.758 237.315 248.441C237.315 247.123 237.056 245.818 236.552 244.601C236.048 243.384 235.308 242.277 234.376 241.346C232.495 239.465 229.942 238.408 227.281 238.408C224.62 238.408 222.068 239.465 220.187 241.346Z" fill="#57B894"/>
<path d="M254.202 360.209C254.202 360.209 247.955 362.083 244.831 365.829C244.831 365.829 239.209 368.327 235.773 367.703C232.338 367.078 226.091 373.323 231.088 375.196C236.086 377.07 266.696 382.066 267.321 380.504C267.945 378.943 267.945 363.019 267.945 363.019L254.202 360.209Z" fill="#575A89"/>
<path d="M303.273 357.528C303.273 357.528 297.438 360.44 295 364.665C295 364.665 289.887 368.087 286.395 368.058C282.903 368.029 277.815 375.249 283.059 376.241C288.304 377.234 319.317 376.93 319.666 375.285C320.015 373.64 317.294 357.95 317.294 357.95L303.273 357.528Z" fill="#575A89"/>
<path d="M264.353 145.861C272.116 145.861 278.409 139.57 278.409 131.81C278.409 124.05 272.116 117.76 264.353 117.76C256.591 117.76 250.298 124.05 250.298 131.81C250.298 139.57 256.591 145.861 264.353 145.861Z" fill="#FFB9B9"/>
<path d="M275.754 134.152C275.754 134.152 277.316 144.768 280.127 146.017C282.083 146.979 283.875 148.244 285.437 149.764L277.628 153.51L262.323 152.574C262.323 152.574 263.572 145.704 261.386 142.27C259.2 138.835 275.754 134.152 275.754 134.152Z" fill="#FFB9B9"/>
<path d="M304.802 184.421C304.802 184.421 311.986 202.843 304.802 220.641C297.618 238.438 294.495 241.248 294.495 241.248L292.308 217.83L294.822 215.55C294.822 215.55 296.345 208.446 295.107 204.24C293.87 200.033 295.744 186.919 295.744 186.919L304.802 184.421Z" fill="#FFB9B9"/>
<path d="M251.079 224.387C251.079 224.387 242.021 244.995 242.958 254.986C243.895 264.978 251.079 307.129 251.079 307.129C251.079 307.129 250.142 361.458 252.953 361.458C255.764 361.458 269.195 366.454 269.195 363.019C269.195 359.585 272.006 277.155 272.006 277.155C272.006 277.155 287.936 313.374 289.497 316.184C291.059 318.994 301.054 363.019 304.49 363.019C307.926 363.019 318.546 359.897 317.609 357.711C316.672 355.526 306.052 306.817 300.117 294.328C294.183 281.838 295.432 234.691 295.432 234.691L285.437 212.835L251.079 224.387Z" fill="#2F2E41"/>
<path d="M260.137 125.409C260.137 125.409 251.391 124.785 250.766 122.599C250.142 120.414 248.892 118.54 249.517 118.54C250.142 118.54 250.454 116.979 250.454 116.979C250.454 116.979 251.079 116.667 251.391 116.979C251.703 117.291 252.016 114.793 252.016 114.793C252.016 114.793 252.328 113.857 252.64 114.481C252.953 115.106 252.953 114.793 253.265 113.857C253.577 112.92 255.139 112.295 255.139 112.295C255.139 112.295 261.074 112.608 262.011 111.359C262.948 110.11 273.568 111.047 275.754 112.608C277.941 114.169 287.623 119.789 286.062 124.473C284.5 129.156 278.878 139.46 278.878 141.021C278.878 142.582 276.691 142.27 276.066 140.709C275.442 139.148 270.444 137.274 270.444 136.337C270.444 135.401 267.633 126.658 266.071 127.283C264.51 127.907 262.636 132.903 262.011 131.966C261.386 131.029 260.137 125.409 260.137 125.409Z" fill="#3F3D56"/>
<path d="M303.241 168.185C303.241 168.185 290.434 149.451 286.686 148.515C282.938 147.578 274.505 145.08 274.505 145.08C274.505 145.08 266.071 146.329 263.573 147.578C261.074 148.827 251.703 151.012 251.391 154.759C251.079 158.506 253.89 194.413 252.328 197.847C250.766 201.282 245.456 234.067 247.955 233.442C250.454 232.818 248.58 224.7 259.512 224.387C270.444 224.075 276.379 217.518 280.439 225.324C284.5 233.13 296.057 239.062 296.057 239.062C296.347 236.545 296.764 234.044 297.306 231.569C298.243 227.197 294.807 216.581 294.807 216.581C294.807 216.581 295.12 191.915 296.369 189.105C297.618 186.295 303.241 168.185 303.241 168.185Z" fill="#575A89"/>
<path d="M298.555 167.561L303.24 168.185C303.24 168.185 302.928 174.43 304.178 176.303C305.427 178.177 307.613 187.856 306.364 188.168C305.115 188.48 293.87 190.354 293.87 190.354L293.245 175.991L298.555 167.561Z" fill="#575A89"/>
<path d="M247.955 178.801C247.955 178.801 244.832 199.096 243.27 201.594C241.708 204.092 233.9 239.062 233.9 239.062C233.9 239.062 221.059 256.913 227.306 256.601C233.553 256.288 240.147 240.311 240.147 240.311C240.147 240.311 259.512 205.029 259.512 201.282C259.512 197.535 264.197 178.801 264.197 178.801H247.955Z" fill="#FFB9B9"/>
<path d="M257.013 151.325L251.391 153.51C251.391 153.51 244.207 179.113 245.769 181.299C247.33 183.485 266.071 180.362 266.384 179.426C266.696 178.489 262.948 151.325 257.013 151.325Z" fill="#575A89"/>
<path d="M5.87988 217.115C5.87988 238.873 19.535 256.48 36.41 256.48L5.87988 217.115Z" fill="#3F3D56"/>
<path d="M36.4102 256.48C36.4102 234.477 51.6484 216.673 70.48 216.673L36.4102 256.48Z" fill="#F9DC25"/>
<path d="M16.9417 219.087C16.9417 239.756 25.6492 256.48 36.4101 256.48L16.9417 219.087Z" fill="#F9DC25"/>
<path d="M36.4102 256.48C36.4102 228.365 54.0232 205.615 75.7896 205.615L36.4102 256.48Z" fill="#3F3D56"/>
<path d="M29.9875 256.758C29.9875 256.758 34.3172 256.624 35.6221 255.696C36.9269 254.767 42.2822 253.658 42.6059 255.147C42.9296 256.637 49.1126 262.556 44.2244 262.595C39.3362 262.635 32.8664 261.834 31.5641 261.041C30.2618 260.248 29.9875 256.758 29.9875 256.758Z" fill="#A8A8A8"/>
<path opacity="0.2" d="M44.3116 262.077C39.4235 262.116 32.9537 261.316 31.6513 260.523C30.6595 259.919 30.2643 257.752 30.1321 256.752C30.0405 256.756 29.9875 256.758 29.9875 256.758C29.9875 256.758 30.2618 260.248 31.5641 261.041C32.8665 261.834 39.3362 262.635 44.2244 262.595C45.6355 262.584 46.1228 262.082 46.0961 261.339C45.9 261.788 45.3619 262.068 44.3116 262.077Z" fill="black"/>
</g>
<defs>
<clipPath id="clip0">
<rect width="418" height="450" fill="white"/>
</clipPath>
</defs>
</svg>
