<svg width="96" height="96" viewBox="0 0 96 96" fill="none" xmlns="http://www.w3.org/2000/svg">
<path d="M87.4183 3.79895H7.91813C3.47831 3.79895 0 7.39182 0 11.9687V62.9779C0 65.2206 0.800812 67.2343 2.12831 68.7219C2.15119 68.8134 2.19694 68.905 2.26556 68.9736C2.35706 69.088 2.47144 69.1566 2.60887 69.2023C4.00481 70.5066 5.85844 71.3078 7.91813 71.3078H25.9738C26.4086 82.9101 35.9741 92.2011 47.6681 92.2011C59.3621 92.2011 68.9276 82.9101 69.3624 71.3078H87.4181C91.995 71.3078 95.9998 67.4175 95.9998 62.9779V11.9687C96 7.55195 92.064 3.79895 87.4183 3.79895ZM7.91813 5.30926H12.9984V5.28639C13.0442 5.33214 13.0671 5.37789 13.1128 5.40076L47.1878 32.8849C47.325 32.9993 47.4853 33.045 47.6683 33.045C47.8284 33.045 48.0116 32.9993 48.1489 32.8849L52.7486 29.1548C53.0691 28.9031 53.1148 28.4226 52.863 28.1021C52.6114 27.7817 52.1308 27.7359 51.8104 27.9878L47.6914 31.3288L15.3553 5.28639H79.4544L57.6227 23.2734C57.3023 23.5481 57.2565 24.0056 57.5312 24.3261C57.6684 24.5091 57.8974 24.6006 58.1032 24.6006C58.2634 24.6006 58.4466 24.5548 58.5838 24.4404L81.6744 5.40076C81.7202 5.35501 81.7659 5.33214 81.7888 5.28639H87.4183C88.8373 5.28639 90.1873 5.69833 91.3086 6.43051L47.6681 41.7641L4.14206 6.5222C5.19487 5.74408 6.47625 5.30926 7.91813 5.30926ZM94.5354 62.9779H94.5124C94.5124 64.7171 93.7573 66.3647 92.5442 67.6007L59.1332 40.5512C58.8128 40.2996 58.3324 40.3453 58.0806 40.6656C57.8288 40.9858 57.8747 41.4664 58.1949 41.7182L91.3772 68.5616C90.2331 69.3396 88.8598 69.7973 87.4183 69.7973H69.3626C69.2254 65.3348 67.7606 61.1241 65.1062 57.5312C64.8546 57.1879 64.3969 57.1193 64.0536 57.3711C63.7102 57.6229 63.6416 58.0804 63.8934 58.4237C66.5021 61.9253 67.875 66.0902 67.875 70.4612C67.875 81.606 58.8128 90.6909 47.6452 90.6909C36.4777 90.6909 27.4155 81.6287 27.4155 70.4612C27.4155 59.3164 36.4777 50.2314 47.6452 50.2314C51.5355 50.2314 55.3116 51.3298 58.5611 53.4353C58.9044 53.664 59.3619 53.5496 59.5909 53.2065C59.8196 52.8632 59.7052 52.4057 59.3621 52.1768C55.8609 49.9341 51.8102 48.7442 47.6224 48.7442C35.8597 48.7442 26.2714 58.1267 25.9052 69.7978H7.91813C6.47644 69.7978 5.14913 69.3173 4.07363 68.4707L37.1415 41.6961C37.4619 41.4444 37.5077 40.9639 37.2559 40.6434C37.0042 40.323 36.5237 40.2773 36.2033 40.5291L3.02081 67.3946C2.08256 66.2048 1.51031 64.6714 1.51031 62.955V11.9687C1.51031 10.2523 2.08238 8.69626 3.04369 7.55195L47.2104 43.3202C47.3477 43.4346 47.508 43.4803 47.691 43.4803C47.874 43.4803 48.0343 43.4346 48.1716 43.3202L92.5446 7.39182C93.7802 8.60458 94.5356 10.2294 94.5356 11.9916V62.9779H94.5354Z" fill="#687ECD" fill-opacity="0.7"/>
<path d="M58.3092 64.3512C57.4396 63.4358 55.9977 63.4358 55.1283 64.3053L46.1806 73.2531L41.5808 68.6763C40.7341 67.8295 39.2466 67.8295 38.3999 68.6763C37.9651 69.1111 37.7363 69.6603 37.7363 70.2783C37.7363 70.8732 37.9651 71.4453 38.3999 71.8802L44.5786 78.0589C45.0134 78.4937 45.5626 78.7225 46.1806 78.7225C46.7755 78.7225 47.3476 78.4937 47.7826 78.0589L58.3094 67.5321C58.7442 67.0973 58.973 66.5481 58.973 65.953C58.9728 65.3581 58.744 64.786 58.3092 64.3512ZM57.2564 66.4334L46.7296 76.9602C46.4549 77.2349 45.9516 77.2349 45.677 76.9602L39.4983 70.7815C39.361 70.6443 39.2695 70.4611 39.2695 70.2552C39.2695 70.0493 39.3381 69.8661 39.4983 69.7289C39.6355 69.5916 39.8187 69.5001 40.0246 69.5001C40.2305 69.5001 40.4136 69.5688 40.5509 69.7289L45.677 74.8549C45.9745 75.1525 46.4549 75.1525 46.7296 74.8549L56.2036 65.3809C56.5011 65.0834 56.9815 65.0834 57.2562 65.3809C57.3935 65.5182 57.485 65.7014 57.485 65.9073C57.4625 66.1131 57.3938 66.2961 57.2564 66.4334Z" fill="#687ECD" fill-opacity="0.7"/>
</svg>
