<svg width="440" height="240" viewBox="0 0 440 240" fill="none" xmlns="http://www.w3.org/2000/svg">
<g clip-path="url(#clip0)">
<path d="M3.05176e-05 224.99C3.05176e-05 211.89 6.64699 201.271 14.8465 201.271C20 201.271 24.5389 205.468 27.2009 211.837C28.1003 211.464 29.0642 211.27 30.0381 211.268C32.52 211.268 34.8146 212.539 36.6859 214.692C39.0855 206.75 44.1739 201.271 50.0635 201.271C55.5702 201.271 60.3731 206.064 62.9361 213.178C64.36 211.977 66.1544 211.302 68.0173 211.268C74.3099 211.268 79.4111 219.417 79.4111 229.47C79.4372 232.822 78.8281 236.147 77.616 239.272H2.99415C1.11543 235.299 3.05176e-05 230.353 3.05176e-05 224.99Z" fill="#F9DC25"/>
<path d="M53.2264 88.0245C64.9182 62.7321 87.799 41.1556 115.44 37.6389C122.749 36.7091 130.379 37.0821 137.16 39.9625C146.061 43.7435 152.621 51.3753 159.251 58.4154C173.289 73.3174 188.998 86.5513 206.067 97.8552C214.491 103.433 223.528 108.637 233.53 110.064C253.584 112.925 273.421 99.249 282.567 81.1736C288.28 69.8824 290.92 56.6255 295.539 44.8811C300.858 44.8709 307.195 44.8729 314.013 44.9043C332.858 44.9912 348.198 45.2696 348.198 45.2696C348.198 45.2696 329.965 21.1176 314.081 30.0657C309.005 32.9253 303.689 35.4771 298.803 37.6267C301.579 32.2875 305.08 27.4836 309.897 23.6211C319.394 16.005 332.257 13.8687 344.417 14.4359C357.187 15.0315 370.074 18.4503 380.45 25.9168C398.935 39.2179 406.568 62.6303 413.102 84.4459L397.31 92.3625C390.536 86.5065 380.631 80.7136 371.502 85.857C355.618 94.8052 337.373 100.746 337.373 100.746C337.373 100.746 352.588 100.609 371.433 100.696C374.598 100.71 377.661 100.73 380.572 100.753L205.247 188.647C147.42 189.461 103.818 186.334 48.8686 188.647C46.0028 188.767 39.5569 173.745 39.5354 169.792C39.384 141.928 41.5345 113.317 53.2264 88.0245ZM109.377 95.6052C128.222 95.692 143.562 95.9705 143.562 95.9705C143.562 95.9705 125.328 71.8184 109.445 80.7666C93.5619 89.7147 75.3161 95.6559 75.3161 95.6559C75.3161 95.6559 90.5313 95.5183 109.377 95.6052V95.6052Z" fill="#F2F2F2"/>
<path opacity="0.3" d="M60.271 178.262C60.271 168.738 66.168 161.016 73.4424 161.016C78.0145 161.016 82.0413 164.068 84.403 168.699C85.214 168.425 86.0642 168.285 86.9201 168.285C89.1337 168.322 91.2471 169.214 92.818 170.774C94.9468 165 99.4611 161.016 104.686 161.016C109.572 161.016 113.833 164.502 116.107 169.674C117.44 168.779 119.008 168.296 120.614 168.285C126.197 168.285 130.723 174.21 130.723 181.52C130.739 183.986 130.195 186.423 129.13 188.647H62.9273C61.152 185.476 60.2364 181.896 60.271 178.262Z" fill="#F9DC25"/>
<path d="M0.000152588 239.959H406.422V239.144H0.407379L0.000152588 239.959Z" fill="#2F2E41"/>
<path d="M33.3935 189.461H439.815V188.647H33.8007L33.3935 189.461Z" fill="#2F2E41"/>
<path d="M267.298 114.489C267.298 114.489 264.738 95.7179 260.472 100.837C256.206 105.957 260.472 113.636 260.472 113.636L263.885 117.902L267.298 115.342V114.489Z" fill="#FFB8B8"/>
<path d="M277.537 120.462C277.537 120.462 269.004 111.076 267.298 112.783C265.591 114.489 260.472 115.342 261.325 118.755C262.178 122.168 280.096 133.26 280.096 133.26L277.537 120.462Z" fill="#F9DC25"/>
<path opacity="0.1" d="M277.537 120.462C277.537 120.462 269.004 111.076 267.298 112.783C265.591 114.489 260.472 115.342 261.325 118.755C262.178 122.168 280.096 133.26 280.096 133.26L277.537 120.462Z" fill="black"/>
<path d="M326.17 119.608V126.434C326.17 126.434 327.023 141.792 321.904 140.939C316.785 140.086 319.344 127.287 319.344 127.287L320.197 119.608H326.17Z" fill="#FFB8B8"/>
<path d="M323.61 169.095C323.61 169.095 331.289 181.04 333.849 181.894C336.409 182.747 350.06 190.426 351.767 198.105L363.712 213.463L357.739 221.142C357.739 221.142 330.436 192.132 322.757 189.573C315.078 187.013 307.399 174.215 307.399 174.215L323.61 169.095Z" fill="#FFB8B8"/>
<path d="M263.032 149.471C263.032 149.471 246.82 152.031 249.38 162.27C251.94 172.508 276.683 193.839 276.683 193.839L277.536 198.958L286.922 200.665L291.188 196.399L290.335 193.839C290.335 193.839 280.096 184.453 279.243 181.041C278.39 177.628 269.004 163.976 264.738 163.123L270.711 159.71L263.032 149.471Z" fill="#FFB8B8"/>
<path d="M361.152 213.463C361.152 213.463 357.74 208.344 362.859 209.197C367.978 210.05 371.391 210.903 371.391 214.316C371.391 217.729 367.125 241.619 362.006 239.913C356.886 238.206 361.152 230.527 361.152 230.527C361.152 230.527 358.593 223.702 356.886 222.848C355.18 221.995 355.18 217.729 356.886 217.729C358.593 217.729 362.006 215.169 361.152 213.463Z" fill="#2F2E41"/>
<path d="M288.628 194.692C288.628 194.692 288.628 190.426 292.041 194.692C295.454 198.958 297.16 202.371 293.748 204.931C290.335 207.49 278.39 213.463 278.39 213.463C278.39 213.463 265.591 216.023 267.298 210.05C267.298 210.05 275.83 205.784 275.83 202.371C275.83 198.958 275.83 192.986 278.39 194.692C280.949 196.398 288.628 197.252 288.628 194.692Z" fill="#2F2E41"/>
<path d="M304.839 130.7C304.839 130.7 316.785 132.407 315.931 149.471C315.931 149.471 331.289 164.829 327.023 169.948C322.757 175.068 313.372 184.453 309.959 181.894C306.546 179.334 296.307 159.71 296.307 159.71C296.307 159.71 272.417 168.242 268.151 163.976C263.885 159.71 259.619 149.471 259.619 149.471L280.949 138.379L304.839 130.7Z" fill="#2F2E41"/>
<path d="M271.564 82.0665C265.909 82.0665 261.325 77.4825 261.325 71.8278C261.325 66.1731 265.909 61.5891 271.564 61.5891C277.218 61.5891 281.802 66.1731 281.802 71.8278C281.802 77.4825 277.218 82.0665 271.564 82.0665Z" fill="#FFB8B8"/>
<path d="M279.243 72.6809C279.243 72.6809 285.216 82.0664 286.922 82.9196C288.628 83.7728 274.977 92.3051 274.977 92.3051C274.977 92.3051 274.977 81.2131 270.711 78.6535L279.243 72.6809Z" fill="#FFB8B8"/>
<path d="M280.096 82.0665C280.096 82.0665 293.748 77.8003 296.307 84.6261C298.867 91.4519 304.84 104.25 303.986 112.783C303.133 121.315 301.427 119.608 303.986 122.168C306.546 124.728 308.253 123.021 307.399 126.434C306.546 129.847 305.693 129.847 306.546 131.553C307.399 133.26 296.307 139.232 286.922 140.086L277.537 140.939C277.537 140.939 277.537 125.581 275.83 122.168C274.124 118.755 270.711 111.929 270.711 109.37V102.597C270.711 98.0891 271.887 93.6594 274.124 89.7455C274.124 89.7455 279.243 82.0665 280.096 82.0665Z" fill="#F9DC25"/>
<path d="M290.335 85.4792C290.335 85.4792 321.904 88.0389 325.317 96.5712C328.73 105.103 330.436 122.168 327.023 122.168C323.611 122.168 319.344 123.874 318.491 122.168C317.638 120.461 314.225 103.397 313.372 103.397C312.519 103.397 286.922 100.837 286.922 100.837C286.922 100.837 275.83 87.1857 290.335 85.4792Z" fill="#F9DC25"/>
<path d="M271.152 69.2895C271.152 69.2895 268.435 64.5678 265.039 68.669C261.643 72.7703 256.118 65.2335 256.966 63.6253C257.814 62.0171 260.809 63.6976 265.942 62.0197C271.075 60.3417 280.963 56.9233 282.619 68.0741C284.275 79.225 280.331 78.056 280.331 78.056C280.331 78.056 278.523 68.1751 276.889 71.0133L275.256 73.8515L273.838 74.2004L271.152 69.2895Z" fill="#2F2E41"/>
<path d="M174.579 43.1621C167.68 43.1621 162.087 37.5694 162.087 30.6704C162.087 23.7714 167.68 18.1787 174.579 18.1787C181.478 18.1787 187.07 23.7714 187.07 30.6704C187.07 37.5694 181.478 43.1621 174.579 43.1621Z" fill="#2F2E41"/>
<path d="M178.571 39.9163C178.571 39.9163 177.925 51.5519 179.218 51.5519C180.511 51.5519 171.138 57.0465 171.138 57.0465L165.32 53.8144V49.9359C165.32 49.9359 173.077 48.9662 169.845 40.5628C166.613 32.1593 178.571 39.9163 178.571 39.9163Z" fill="#9F616A"/>
<path d="M205.722 167.584L206.691 177.281L203.459 178.25L200.873 175.665L199.904 167.584H205.722Z" fill="#9F616A"/>
<path d="M159.179 173.079L157.563 179.22L153.038 182.129L148.19 179.543L153.685 170.493L159.179 173.079Z" fill="#9F616A"/>
<path d="M175.501 44.9264C170.325 44.9264 166.128 40.7299 166.128 35.5533C166.128 30.3767 170.325 26.1802 175.501 26.1802C180.678 26.1802 184.874 30.3767 184.874 35.5533C184.874 40.7299 180.678 44.9264 175.501 44.9264Z" fill="#9F616A"/>
<path d="M181.157 70.6216L183.42 69.652C183.42 69.652 187.298 67.3895 187.622 62.8646C187.945 58.3396 184.389 52.5218 184.389 52.5218L179.218 50.9058L173.142 55.851L173.077 63.8342L181.157 70.6216Z" fill="#9F616A"/>
<path d="M183.42 53.1684L184.712 52.5219C184.712 52.5219 191.177 52.1987 191.823 59.9558C192.47 67.7128 194.732 80.6412 194.732 80.6412C194.732 80.6412 199.903 89.6911 199.58 99.3875L202.166 107.791C202.166 107.791 205.721 120.073 201.519 120.073C197.318 120.073 197.641 106.821 197.641 106.821C197.641 106.821 189.884 88.0751 189.237 84.843C188.591 81.6109 183.096 66.42 184.712 62.2182C186.329 58.0165 183.42 53.1684 183.42 53.1684Z" fill="#9F616A"/>
<path d="M178.572 73.5303V77.0856C178.572 77.0856 176.309 79.6713 177.279 81.2873C178.248 82.9034 179.218 86.1355 179.218 86.1355L174.693 93.2461L159.502 94.539L156.481 74.2995L178.572 73.5303Z" fill="#9F616A"/>
<path d="M164.35 50.9057L161.764 49.6129C161.764 49.6129 156.27 45.7344 151.745 45.0879L137.847 35.7148L128.797 14.0597C128.797 14.0597 129.12 2.42413 126.535 3.71697C123.949 5.00981 124.272 15.0293 124.272 15.0293C124.272 15.0293 129.12 35.0684 133.322 40.563C137.524 46.0575 152.715 55.1074 152.715 55.1074C152.715 55.1074 156.916 59.9556 156.593 62.2181C156.27 64.4806 164.35 50.9057 164.35 50.9057Z" fill="#9F616A"/>
<path d="M176.309 86.1357C176.309 86.1357 179.864 83.8732 182.127 87.7518C184.389 91.6303 188.591 92.5999 191.177 104.236C193.762 115.871 199.903 134.294 201.519 135.587C203.135 136.88 209.923 150.455 206.044 169.524H199.58L194.086 142.051C194.086 142.051 176.309 120.073 175.016 111.023L169.198 144.96C169.198 144.96 168.875 157.888 164.027 164.029L158.856 176.311L152.068 173.079L159.825 142.051C159.825 142.051 155.947 110.7 158.532 101.973L158.904 90.5322C158.904 90.5322 169.522 90.9839 176.309 86.1357Z" fill="#2F2E41"/>
<path d="M203.459 175.665H207.337C207.984 175.665 213.155 179.867 210.893 182.129C208.63 184.392 205.075 188.593 205.075 188.593C205.075 188.593 192.47 190.196 192.146 187.934C191.823 185.671 197.641 180.836 197.641 180.836L199.257 175.665C199.257 175.665 202.489 172.11 203.459 175.665Z" fill="#2F2E41"/>
<path d="M152.068 178.897C152.068 178.897 157.563 178.574 158.533 178.251C159.502 177.927 161.441 186.654 158.533 187.3C155.624 187.947 143.665 188.917 143.665 188.917C143.665 188.917 134.292 188.593 134.938 186.008C135.585 183.422 148.19 178.251 148.19 178.251C148.19 178.251 149.806 175.018 152.068 178.897Z" fill="#2F2E41"/>
<path d="M177.602 50.5826L179.218 49.6129L181.157 51.229C181.157 51.229 175.34 55.1075 176.632 58.6628C177.925 62.2181 183.42 69.652 183.42 69.652C183.42 69.652 178.572 75.1465 178.572 77.0858C178.572 77.0858 165.967 72.5609 156.593 77.0858C156.593 77.0858 156.593 70.6216 155.301 69.3288C154.008 68.0359 153.361 63.511 156.593 59.6325C158.87 56.7785 160.924 53.7529 162.734 50.5826L165.967 48.6433L167.631 49.1714C167.631 49.1714 164.35 52.845 167.583 53.1683C170.815 53.4915 175.986 52.5218 177.602 50.5826Z" fill="#F9DC25"/>
<path d="M165.449 9.37305C166.547 10.5988 168.051 11.3866 169.684 11.5915C172.508 11.9949 170.289 16.4318 170.289 16.4318C170.289 16.4318 171.096 14.8184 169.482 13.4066C167.869 11.9949 165.449 11.1882 165.449 9.37305Z" fill="#2F2E41"/>
<path d="M170.892 20.841C168.97 20.841 167.411 19.2824 167.411 17.3597C167.411 15.437 168.97 13.8784 170.892 13.8784C172.815 13.8784 174.374 15.437 174.374 17.3597C174.374 19.2824 172.815 20.841 170.892 20.841Z" fill="#2F2E41"/>
<path d="M166.828 20.7876C169.518 19.3828 174.145 18.2779 176.603 18.3569L175.981 15.9795C173.805 17.458 169.202 18.5835 166.207 18.4102L166.828 20.7876Z" fill="#F9DC25"/>
<path d="M172.385 20.9968C172.385 20.9968 176.623 26.4458 185.099 27.6566C193.575 28.8675 186.915 42.1871 186.915 42.1871C186.915 42.1871 189.337 37.3436 184.493 33.1056C179.65 28.8675 172.385 26.4457 172.385 20.9968Z" fill="#2F2E41"/>
<path d="M172.061 20.6736C172.061 20.6736 169.64 29.1497 166.007 30.3606C162.374 31.5714 164.191 44.2856 170.245 45.4965C170.245 45.4965 165.099 38.534 168.126 33.085C171.153 27.6361 172.969 23.398 172.061 20.6736Z" fill="#2F2E41"/>
<path d="M115.061 6.46411H137.362V9.04979H115.061V6.46411Z" fill="#2F2E41"/>
<path d="M115.061 15.5141C113.99 15.5141 113.121 12.0412 113.121 7.75705C113.121 3.47295 113.99 0 115.061 0C116.132 0 117 3.47295 117 7.75705C117 12.0412 116.132 15.5141 115.061 15.5141Z" fill="#2F2E41"/>
<path d="M137.362 15.5141C136.291 15.5141 135.423 12.0412 135.423 7.75705C135.423 3.47295 136.291 0 137.362 0C138.433 0 139.302 3.47295 139.302 7.75705C139.302 12.0412 138.433 15.5141 137.362 15.5141Z" fill="#2F2E41"/>
<path d="M103.748 180.358H126.05V182.943H103.748V180.358Z" fill="#2F2E41"/>
<path d="M103.748 189.408C102.677 189.408 101.809 185.935 101.809 181.651C101.809 177.366 102.677 173.894 103.748 173.894C104.819 173.894 105.688 177.366 105.688 181.651C105.688 185.935 104.819 189.408 103.748 189.408Z" fill="#2F2E41"/>
<path d="M126.05 189.408C124.979 189.408 124.111 185.935 124.111 181.651C124.111 177.366 124.979 173.894 126.05 173.894C127.121 173.894 127.989 177.366 127.989 181.651C127.989 185.935 127.121 189.408 126.05 189.408Z" fill="#2F2E41"/>
<path opacity="0.3" d="M360.811 178.262C360.811 168.738 366.708 161.016 373.983 161.016C378.555 161.016 382.582 164.068 384.943 168.699C385.754 168.425 386.604 168.285 387.46 168.285C389.674 168.322 391.787 169.214 393.358 170.774C395.487 165 400.001 161.016 405.227 161.016C410.112 161.016 414.373 164.502 416.647 169.674C417.981 168.779 419.548 168.296 421.155 168.285C426.737 168.285 431.263 174.21 431.263 181.52C431.279 183.986 430.735 186.423 429.671 188.647H363.468C361.692 185.476 360.777 181.896 360.811 178.262Z" fill="#F9DC25"/>
</g>
<defs>
<clipPath id="clip0">
<rect width="439.815" height="240" transform="matrix(-1 0 0 1 439.815 0)" fill="white"/>
</clipPath>
</defs>
</svg>
