<svg width="24" height="24" viewBox="0 0 24 24" fill="none" xmlns="http://www.w3.org/2000/svg">
<g clip-path="url(#clip0)">
<path d="M6.17807 8.29229C6.72017 7.88327 7.38907 7.7099 8.0615 7.80408L13.071 8.50535C13.7535 8.6009 14.3349 8.96109 14.7268 9.46723C15.7274 9.54013 16.6135 10.1544 17.0281 11.0847L20.1907 18.1713C20.8072 19.5524 20.1851 21.1776 18.8037 21.7944L14.5514 23.6917C14.1939 23.8513 13.8146 23.9314 13.4344 23.9314C13.1032 23.9314 12.7713 23.8706 12.4527 23.7486C11.7685 23.4866 11.2271 22.9738 10.9284 22.3047L10.5845 21.5331L6.22503 20.9228C4.83683 20.7285 3.86557 19.441 4.05991 18.0527L5.19147 9.9693C5.2856 9.29681 5.63601 8.70121 6.17807 8.29229ZM15.0966 10.1261C15.2429 10.512 15.2972 10.9386 15.2361 11.3754L14.1045 19.4589C14.0104 20.1314 13.66 20.727 13.1179 21.1359C12.6723 21.4721 12.1408 21.6491 11.5922 21.6491C11.4861 21.6491 11.3794 21.6421 11.2726 21.6288L11.4668 22.0646C11.7012 22.5897 12.1263 22.9923 12.6635 23.198C13.2008 23.4037 13.7859 23.3878 14.3111 23.1534L18.5635 21.256C19.0887 21.0215 19.4913 20.5965 19.697 20.0592C19.9027 19.522 19.8868 18.9368 19.6523 18.4116L16.4897 11.3248C16.2227 10.7256 15.7072 10.2938 15.0966 10.1261ZM7.97985 8.38789C7.71123 8.35026 7.44335 8.36879 7.18947 8.43893C7.29111 8.62629 7.404 8.80904 7.52736 8.9828L7.04666 9.32403C6.9012 9.11912 6.76881 8.90312 6.65066 8.68136C6.61077 8.70715 6.57142 8.73398 6.53315 8.76286C6.11676 9.07697 5.84765 9.53443 5.77533 10.0509L4.64372 18.1345C4.49443 19.2008 5.2405 20.1897 6.30683 20.3391L11.3162 21.0403C11.8326 21.1125 12.3465 20.9795 12.7629 20.6653C13.1793 20.3512 13.4484 19.8937 13.5207 19.3772L14.6523 11.2936C14.8016 10.2274 14.0555 9.2384 12.9893 9.08916L7.97985 8.38789ZM7.07526 13.6006L12.5141 14.3159L12.2066 16.6539L6.76777 15.9385L7.07526 13.6006ZM8.64787 10.9241C8.76375 10.0962 9.53149 9.51675 10.3593 9.63293C11.1871 9.74887 11.7663 10.5166 11.6504 11.3444C11.5445 12.1012 10.8936 12.6503 10.1502 12.6503C10.0804 12.6503 10.01 12.6455 9.93899 12.6355C9.11117 12.5196 8.53198 11.7518 8.64787 10.9241ZM10.1485 10.2077C9.83774 10.2077 9.55365 10.3648 9.38421 10.6121C9.54559 10.6975 9.71159 10.7751 9.88009 10.843L9.65956 11.3898C9.51238 11.3304 9.36712 11.2639 9.22446 11.1924C9.25133 11.6224 9.57777 11.9897 10.0207 12.0517C10.3474 12.0974 10.6583 11.9652 10.857 11.7299C10.7245 11.7071 10.5928 11.6801 10.4629 11.6483L10.6026 11.0756C10.7578 11.1134 10.916 11.1436 11.075 11.1675C11.0921 10.6992 10.7515 10.2832 10.2776 10.2167C10.2342 10.2107 10.1911 10.2077 10.1485 10.2077ZM8.00982 9.56936C8.18387 9.75265 8.37257 9.92498 8.57054 10.0816L8.20485 10.544C7.98501 10.3701 7.77559 10.1788 7.58233 9.97534L8.00982 9.56936ZM16.4765 8.57108L16.9865 8.86686C16.8459 9.10925 16.6865 9.34392 16.5126 9.5644L16.0497 9.19925C16.2063 9.00068 16.35 8.78934 16.4765 8.57108ZM17.0413 7.16598L17.6141 7.30515C17.5478 7.57795 17.4612 7.84829 17.3564 8.10866L16.8095 7.88872C16.9037 7.65449 16.9817 7.41131 17.0413 7.16598ZM6.64064 6.90208C6.6877 7.15036 6.75313 7.39712 6.83517 7.63557L6.27774 7.82736C6.18647 7.56223 6.11371 7.28786 6.06139 7.01182L6.64064 6.90208ZM17.7747 5.63041C17.7788 5.72144 17.781 5.81384 17.781 5.90517C17.781 6.09435 17.7719 6.28545 17.754 6.47301L17.1672 6.41706C17.1833 6.24802 17.1915 6.07578 17.1915 5.90517C17.1915 5.82283 17.1896 5.73951 17.1858 5.65752L17.7747 5.63041ZM5.98535 5.33187L6.57211 5.38836C6.5557 5.55883 6.5474 5.73269 6.5474 5.90517C6.5474 5.98588 6.54921 6.06753 6.55285 6.1478L5.96393 6.17428C5.95995 6.08526 5.95789 5.99472 5.95789 5.90517C5.95789 5.71387 5.96712 5.52105 5.98535 5.33187ZM17.4597 3.97801C17.551 4.24324 17.624 4.51751 17.6765 4.79316L17.0974 4.90339C17.0501 4.65536 16.9845 4.4087 16.9023 4.17009L17.4597 3.97801ZM6.38435 3.69677L6.93112 3.91709C6.8367 4.15147 6.75849 4.39465 6.69865 4.63998L6.12595 4.50032C6.19241 4.22762 6.27936 3.95723 6.38435 3.69677ZM16.6898 2.48252C16.8525 2.71125 17 2.95349 17.1281 3.20236L16.604 3.47226C16.4887 3.24825 16.3559 3.03018 16.2094 2.82419L16.6898 2.48252ZM7.2298 2.24166L7.69222 2.60725C7.53536 2.80562 7.39152 3.01682 7.26473 3.23493L6.75505 2.93871C6.89594 2.69647 7.05565 2.46189 7.2298 2.24166ZM15.5307 1.26386C15.7508 1.43762 15.9603 1.62877 16.1536 1.83195L15.7264 2.23827C15.5523 2.05518 15.3635 1.88304 15.1653 1.72648L15.5307 1.26386ZM8.44905 1.08327L8.79048 1.56382C8.58474 1.70997 8.38755 1.87238 8.20436 2.04638L7.79829 1.61904C8.00162 1.42583 8.22057 1.24554 8.44905 1.08327ZM14.0752 0.41919C14.3354 0.523927 14.5905 0.64851 14.8334 0.789501L14.5375 1.29938C14.3188 1.17244 14.0892 1.06033 13.8551 0.966108L14.0752 0.41919ZM9.94494 0.314209L10.1367 0.871639C9.89827 0.953728 9.6634 1.05394 9.43874 1.16949L9.16909 0.645267C9.4188 0.516803 9.6798 0.405435 9.94494 0.314209ZM12.4399 0.0210258C12.7196 0.0477994 12.9993 0.0949602 13.2714 0.161182L13.1321 0.733989C12.8872 0.674399 12.6355 0.632003 12.3837 0.607883L12.4399 0.0210258ZM11.5976 0L11.6242 0.588871C11.3713 0.600317 11.1176 0.62994 10.8701 0.676904L10.7602 0.0977603C11.035 0.0455396 11.3168 0.0127236 11.5976 0Z" fill="#3F3D56" fill-opacity="0.8"/>
</g>
<defs>
<clipPath id="clip0">
<rect x="4" width="16.5" height="24" fill="white"/>
</clipPath>
</defs>
</svg>
